<svg width="117" height="39" viewBox="0 0 117 39" fill="none" xmlns="http://www.w3.org/2000/svg">
<path d="M17.6003 11.2614L15.639 3.91677C15.6221 3.85366 15.5282 3.84127 15.4919 3.89736L2.74307 23.5809C2.6967 23.6525 2.79952 23.7262 2.86691 23.6697L17.5771 11.3308C17.5982 11.3131 17.6071 11.2866 17.6003 11.2614Z" fill="#353030"/>
<path d="M6.71227 22.745L0.961907 28.0454C0.912495 28.0909 0.943876 28.1734 1.01107 28.1746L24.5889 28.5988C24.6746 28.6003 24.6947 28.4796 24.613 28.4534L6.78555 22.7288C6.76 22.7206 6.73201 22.7268 6.71227 22.745Z" fill="#353030"/>
<path d="M21.8136 25.909L29.275 28.2518C29.3391 28.2719 29.395 28.2036 29.3626 28.1447L17.9771 7.49371C17.9357 7.41859 17.821 7.46142 17.839 7.5453L21.7631 25.8535C21.7687 25.8797 21.788 25.9009 21.8136 25.909Z" fill="#353030"/>
<path d="M38.5556 4.11562C39.6276 4.11562 40.4676 4.37162 41.0756 4.88362C41.6836 5.39562 41.9876 6.09962 41.9876 6.99562C41.9876 7.89162 41.6836 8.59562 41.0756 9.10762C40.4676 9.61162 39.6276 9.86362 38.5556 9.86362H36.2996V12.5156H35.4116V4.11562H38.5556ZM38.5316 9.08362C39.3636 9.08362 39.9996 8.90362 40.4396 8.54362C40.8796 8.17562 41.0996 7.65962 41.0996 6.99562C41.0996 6.31562 40.8796 5.79562 40.4396 5.43562C39.9996 5.06762 39.3636 4.88362 38.5316 4.88362H36.2996V9.08362H38.5316ZM45.7234 6.15562C46.5474 6.15562 47.1794 6.36362 47.6194 6.77962C48.0594 7.18762 48.2794 7.79562 48.2794 8.60362V12.5156H47.4634V11.5316C47.2714 11.8596 46.9874 12.1156 46.6114 12.2996C46.2434 12.4836 45.8034 12.5756 45.2914 12.5756C44.5874 12.5756 44.0274 12.4076 43.6114 12.0716C43.1954 11.7356 42.9874 11.2916 42.9874 10.7396C42.9874 10.2036 43.1794 9.77162 43.5634 9.44362C43.9554 9.11562 44.5754 8.95162 45.4234 8.95162H47.4274V8.56762C47.4274 8.02362 47.2754 7.61162 46.9714 7.33162C46.6674 7.04362 46.2234 6.89962 45.6394 6.89962C45.2394 6.89962 44.8554 6.96762 44.4874 7.10362C44.1194 7.23162 43.8034 7.41162 43.5394 7.64362L43.1554 7.00762C43.4754 6.73562 43.8594 6.52762 44.3074 6.38362C44.7554 6.23162 45.2274 6.15562 45.7234 6.15562ZM45.4234 11.9036C45.9034 11.9036 46.3154 11.7956 46.6594 11.5796C47.0034 11.3556 47.2594 11.0356 47.4274 10.6196V9.58762H45.4474C44.3674 9.58762 43.8274 9.96362 43.8274 10.7156C43.8274 11.0836 43.9674 11.3756 44.2474 11.5916C44.5274 11.7996 44.9194 11.9036 45.4234 11.9036ZM53.4905 9.22762C53.9385 9.33162 54.2825 9.51162 54.5225 9.76762C54.7705 10.0236 54.8945 10.3356 54.8945 10.7036C54.8945 11.0716 54.7665 11.3996 54.5105 11.6876C54.2625 11.9756 53.9225 12.1996 53.4905 12.3596C53.0585 12.5116 52.5825 12.5876 52.0625 12.5876C51.6065 12.5876 51.1585 12.5236 50.7185 12.3956C50.2785 12.2596 49.8945 12.0636 49.5665 11.8076L49.8545 11.1716C50.1425 11.3876 50.4785 11.5556 50.8625 11.6756C51.2465 11.7956 51.6345 11.8556 52.0265 11.8556C52.6105 11.8556 53.0865 11.7476 53.4545 11.5316C53.8305 11.3076 54.0185 11.0076 54.0185 10.6316C54.0185 10.2956 53.8665 10.0356 53.5625 9.85162C53.2585 9.65962 52.8425 9.56362 52.3145 9.56362H51.2345V8.93962H52.2665C52.7385 8.93962 53.1185 8.85162 53.4065 8.67562C53.6945 8.49162 53.8385 8.24762 53.8385 7.94362C53.8385 7.60762 53.6745 7.34362 53.3465 7.15162C53.0265 6.95962 52.6065 6.86362 52.0865 6.86362C51.4065 6.86362 50.7345 7.03562 50.0705 7.37962L49.8305 6.71962C50.5825 6.32762 51.3625 6.13162 52.1705 6.13162C52.6505 6.13162 53.0825 6.20362 53.4665 6.34763C53.8585 6.48362 54.1625 6.67962 54.3785 6.93562C54.6025 7.19162 54.7145 7.48762 54.7145 7.82362C54.7145 8.14362 54.6025 8.42762 54.3785 8.67562C54.1625 8.92362 53.8665 9.10762 53.4905 9.22762ZM60.0807 6.15562C60.6727 6.15562 61.2087 6.29162 61.6887 6.56362C62.1687 6.82762 62.5447 7.20362 62.8167 7.69162C63.0887 8.17962 63.2247 8.73562 63.2247 9.35962C63.2247 9.99162 63.0887 10.5516 62.8167 11.0396C62.5447 11.5276 62.1687 11.9076 61.6887 12.1796C61.2167 12.4436 60.6807 12.5756 60.0807 12.5756C59.5687 12.5756 59.1047 12.4716 58.6887 12.2636C58.2807 12.0476 57.9447 11.7356 57.6807 11.3276V14.8436H56.8287V6.20362H57.6447V7.45162C57.9007 7.03562 58.2367 6.71562 58.6527 6.49162C59.0767 6.26762 59.5527 6.15562 60.0807 6.15562ZM60.0207 11.8196C60.4607 11.8196 60.8607 11.7196 61.2207 11.5196C61.5807 11.3116 61.8607 11.0196 62.0607 10.6436C62.2687 10.2676 62.3727 9.83962 62.3727 9.35962C62.3727 8.87962 62.2687 8.45562 62.0607 8.08762C61.8607 7.71162 61.5807 7.41962 61.2207 7.21162C60.8607 7.00362 60.4607 6.89962 60.0207 6.89962C59.5727 6.89962 59.1687 7.00362 58.8087 7.21162C58.4567 7.41962 58.1767 7.71162 57.9687 8.08762C57.7687 8.45562 57.6687 8.87962 57.6687 9.35962C57.6687 9.83962 57.7687 10.2676 57.9687 10.6436C58.1767 11.0196 58.4567 11.3116 58.8087 11.5196C59.1687 11.7196 59.5727 11.8196 60.0207 11.8196ZM67.1921 6.15562C68.0161 6.15562 68.6481 6.36362 69.0881 6.77962C69.5281 7.18762 69.7481 7.79562 69.7481 8.60362V12.5156H68.9321V11.5316C68.7401 11.8596 68.4561 12.1156 68.0801 12.2996C67.7121 12.4836 67.2721 12.5756 66.7601 12.5756C66.0561 12.5756 65.4961 12.4076 65.0801 12.0716C64.6641 11.7356 64.4561 11.2916 64.4561 10.7396C64.4561 10.2036 64.6481 9.77162 65.0321 9.44362C65.4241 9.11562 66.0441 8.95162 66.8921 8.95162H68.8961V8.56762C68.8961 8.02362 68.7441 7.61162 68.4401 7.33162C68.1361 7.04362 67.6921 6.89962 67.1081 6.89962C66.7081 6.89962 66.3241 6.96762 65.9561 7.10362C65.5881 7.23162 65.2721 7.41162 65.0081 7.64362L64.6241 7.00762C64.9441 6.73562 65.3281 6.52762 65.7761 6.38362C66.2241 6.23162 66.6961 6.15562 67.1921 6.15562ZM66.8921 11.9036C67.3721 11.9036 67.7841 11.7956 68.1281 11.5796C68.4721 11.3556 68.7281 11.0356 68.8961 10.6196V9.58762H66.9161C65.8361 9.58762 65.2961 9.96362 65.2961 10.7156C65.2961 11.0836 65.4361 11.3756 65.7161 11.5916C65.9961 11.7996 66.3881 11.9036 66.8921 11.9036ZM75.0762 6.35962C75.6602 6.35962 76.1802 6.49162 76.6362 6.75562C77.1002 7.01162 77.4602 7.37562 77.7162 7.84762C77.9722 8.31162 78.1002 8.84362 78.1002 9.44362C78.1002 10.0596 77.9642 10.6076 77.6922 11.0876C77.4282 11.5596 77.0562 11.9276 76.5762 12.1916C76.0962 12.4556 75.5442 12.5876 74.9202 12.5876C73.8722 12.5876 73.0602 12.2196 72.4842 11.4836C71.9082 10.7476 71.6202 9.73162 71.6202 8.43562C71.6202 7.08362 71.8762 6.04762 72.3882 5.32762C72.9082 4.60762 73.7162 4.11962 74.8122 3.86362L77.6442 3.21562L77.7882 3.99562L75.1242 4.60762C74.2202 4.80762 73.5562 5.16362 73.1322 5.67562C72.7082 6.17962 72.4762 6.92762 72.4362 7.91962C72.6922 7.43162 73.0482 7.05162 73.5042 6.77962C73.9602 6.49962 74.4842 6.35962 75.0762 6.35962ZM74.9442 11.8796C75.3842 11.8796 75.7762 11.7796 76.1202 11.5796C76.4722 11.3716 76.7442 11.0836 76.9362 10.7156C77.1362 10.3476 77.2362 9.93162 77.2362 9.46762C77.2362 9.00362 77.1402 8.59562 76.9482 8.24362C76.7562 7.89162 76.4842 7.61962 76.1322 7.42762C75.7882 7.22762 75.3922 7.12762 74.9442 7.12762C74.4962 7.12762 74.0962 7.22762 73.7442 7.42762C73.4002 7.61962 73.1282 7.89162 72.9282 8.24362C72.7362 8.59562 72.6402 9.00362 72.6402 9.46762C72.6402 9.93162 72.7362 10.3476 72.9282 10.7156C73.1282 11.0836 73.4042 11.3716 73.7562 11.5796C74.1082 11.7796 74.5042 11.8796 74.9442 11.8796ZM82.5304 12.5756C81.9224 12.5756 81.3744 12.4396 80.8864 12.1676C80.3984 11.8876 80.0144 11.5036 79.7344 11.0156C79.4544 10.5276 79.3144 9.97562 79.3144 9.35962C79.3144 8.74362 79.4544 8.19162 79.7344 7.70362C80.0144 7.21562 80.3984 6.83562 80.8864 6.56362C81.3744 6.29162 81.9224 6.15562 82.5304 6.15562C83.1384 6.15562 83.6864 6.29162 84.1744 6.56362C84.6624 6.83562 85.0424 7.21562 85.3144 7.70362C85.5944 8.19162 85.7344 8.74362 85.7344 9.35962C85.7344 9.97562 85.5944 10.5276 85.3144 11.0156C85.0424 11.5036 84.6624 11.8876 84.1744 12.1676C83.6864 12.4396 83.1384 12.5756 82.5304 12.5756ZM82.5304 11.8196C82.9784 11.8196 83.3784 11.7196 83.7304 11.5196C84.0904 11.3116 84.3704 11.0196 84.5704 10.6436C84.7704 10.2676 84.8704 9.83962 84.8704 9.35962C84.8704 8.87962 84.7704 8.45162 84.5704 8.07562C84.3704 7.69962 84.0904 7.41162 83.7304 7.21162C83.3784 7.00362 82.9784 6.89962 82.5304 6.89962C82.0824 6.89962 81.6784 7.00362 81.3184 7.21162C80.9664 7.41162 80.6864 7.69962 80.4784 8.07562C80.2784 8.45162 80.1784 8.87962 80.1784 9.35962C80.1784 9.83962 80.2784 10.2676 80.4784 10.6436C80.6864 11.0196 80.9664 11.3116 81.3184 11.5196C81.6784 11.7196 82.0824 11.8196 82.5304 11.8196ZM91.7609 6.95962H89.3729V12.5156H88.5209V6.95962H86.1329V6.20362H91.7609V6.95962ZM95.1648 6.15562C95.9888 6.15562 96.6208 6.36362 97.0608 6.77962C97.5008 7.18762 97.7208 7.79562 97.7208 8.60362V12.5156H96.9048V11.5316C96.7128 11.8596 96.4288 12.1156 96.0528 12.2996C95.6848 12.4836 95.2448 12.5756 94.7328 12.5756C94.0288 12.5756 93.4688 12.4076 93.0528 12.0716C92.6368 11.7356 92.4288 11.2916 92.4288 10.7396C92.4288 10.2036 92.6208 9.77162 93.0048 9.44362C93.3968 9.11562 94.0168 8.95162 94.8648 8.95162H96.8688V8.56762C96.8688 8.02362 96.7168 7.61162 96.4128 7.33162C96.1088 7.04362 95.6648 6.89962 95.0808 6.89962C94.6808 6.89962 94.2968 6.96762 93.9288 7.10362C93.5608 7.23162 93.2448 7.41162 92.9808 7.64362L92.5968 7.00762C92.9168 6.73562 93.3008 6.52762 93.7488 6.38362C94.1968 6.23162 94.6688 6.15562 95.1648 6.15562ZM94.8648 11.9036C95.3448 11.9036 95.7568 11.7956 96.1008 11.5796C96.4448 11.3556 96.7008 11.0356 96.8688 10.6196V9.58762H94.8888C93.8088 9.58762 93.2688 9.96362 93.2688 10.7156C93.2688 11.0836 93.4088 11.3756 93.6888 11.5916C93.9688 11.7996 94.3608 11.9036 94.8648 11.9036ZM99.9889 6.20362H100.841V8.99962H104.813V6.20362H105.665V12.5156H104.813V9.73162H100.841V12.5156H99.9889V6.20362ZM110.691 12.5756C110.083 12.5756 109.535 12.4396 109.047 12.1676C108.559 11.8876 108.175 11.5036 107.895 11.0156C107.615 10.5276 107.475 9.97562 107.475 9.35962C107.475 8.74362 107.615 8.19162 107.895 7.70362C108.175 7.21562 108.559 6.83562 109.047 6.56362C109.535 6.29162 110.083 6.15562 110.691 6.15562C111.299 6.15562 111.847 6.29162 112.335 6.56362C112.823 6.83562 113.203 7.21562 113.475 7.70362C113.755 8.19162 113.895 8.74362 113.895 9.35962C113.895 9.97562 113.755 10.5276 113.475 11.0156C113.203 11.5036 112.823 11.8876 112.335 12.1676C111.847 12.4396 111.299 12.5756 110.691 12.5756ZM110.691 11.8196C111.139 11.8196 111.539 11.7196 111.891 11.5196C112.251 11.3116 112.531 11.0196 112.731 10.6436C112.931 10.2676 113.031 9.83962 113.031 9.35962C113.031 8.87962 112.931 8.45162 112.731 8.07562C112.531 7.69962 112.251 7.41162 111.891 7.21162C111.539 7.00362 111.139 6.89962 110.691 6.89962C110.243 6.89962 109.839 7.00362 109.479 7.21162C109.127 7.41162 108.847 7.69962 108.639 8.07562C108.439 8.45162 108.339 8.87962 108.339 9.35962C108.339 9.83962 108.439 10.2676 108.639 10.6436C108.847 11.0196 109.127 11.3116 109.479 11.5196C109.839 11.7196 110.243 11.8196 110.691 11.8196ZM44.4014 24.2516C45.2574 24.4516 45.6854 24.9676 45.6854 25.7996C45.6854 26.3516 45.4814 26.7756 45.0734 27.0716C44.6654 27.3676 44.0574 27.5156 43.2494 27.5156H40.3814V21.2036H43.1654C43.8854 21.2036 44.4494 21.3436 44.8574 21.6236C45.2654 21.9036 45.4694 22.3036 45.4694 22.8236C45.4694 23.1676 45.3734 23.4636 45.1814 23.7116C44.9974 23.9516 44.7374 24.1316 44.4014 24.2516ZM41.2094 24.0116H43.1054C43.5934 24.0116 43.9654 23.9196 44.2214 23.7356C44.4854 23.5516 44.6174 23.2836 44.6174 22.9316C44.6174 22.5796 44.4854 22.3156 44.2214 22.1396C43.9654 21.9636 43.5934 21.8756 43.1054 21.8756H41.2094V24.0116ZM43.2134 26.8436C43.7574 26.8436 44.1654 26.7556 44.4374 26.5796C44.7094 26.4036 44.8454 26.1276 44.8454 25.7516C44.8454 25.3756 44.7214 25.0996 44.4734 24.9236C44.2254 24.7396 43.8334 24.6476 43.2974 24.6476H41.2094V26.8436H43.2134ZM50.1628 24.3356L51.8908 22.0316H52.9468L51.2548 24.3356L52.9468 26.6276H51.8908L50.1628 24.3356ZM52.4668 24.3356L54.1948 22.0316H55.2508L53.5588 24.3356L55.2508 26.6276H54.1948L52.4668 24.3356ZM59.4137 27.6596C58.7497 27.6596 58.1057 27.5716 57.4817 27.3956C56.8657 27.2116 56.3697 26.9756 55.9937 26.6876L56.6537 25.2236C57.0137 25.4876 57.4417 25.6996 57.9377 25.8596C58.4337 26.0196 58.9297 26.0996 59.4257 26.0996C59.9777 26.0996 60.3857 26.0196 60.6497 25.8596C60.9137 25.6916 61.0457 25.4716 61.0457 25.1996C61.0457 24.9996 60.9657 24.8356 60.8057 24.7076C60.6537 24.5716 60.4537 24.4636 60.2057 24.3836C59.9657 24.3036 59.6377 24.2156 59.2217 24.1196C58.5817 23.9676 58.0577 23.8156 57.6497 23.6636C57.2417 23.5116 56.8897 23.2676 56.5937 22.9316C56.3057 22.5956 56.1617 22.1476 56.1617 21.5876C56.1617 21.0996 56.2937 20.6596 56.5577 20.2676C56.8217 19.8676 57.2177 19.5516 57.7457 19.3196C58.2817 19.0876 58.9337 18.9716 59.7017 18.9716C60.2377 18.9716 60.7617 19.0356 61.2737 19.1636C61.7857 19.2916 62.2337 19.4756 62.6177 19.7156L62.0177 21.1916C61.2417 20.7516 60.4657 20.5316 59.6897 20.5316C59.1457 20.5316 58.7417 20.6196 58.4777 20.7956C58.2217 20.9716 58.0937 21.2036 58.0937 21.4916C58.0937 21.7796 58.2417 21.9956 58.5377 22.1396C58.8417 22.2756 59.3017 22.4116 59.9177 22.5476C60.5577 22.6996 61.0817 22.8516 61.4897 23.0036C61.8977 23.1556 62.2457 23.3956 62.5337 23.7236C62.8297 24.0516 62.9777 24.4956 62.9777 25.0556C62.9777 25.5356 62.8417 25.9756 62.5697 26.3756C62.3057 26.7676 61.9057 27.0796 61.3697 27.3116C60.8337 27.5436 60.1817 27.6596 59.4137 27.6596ZM66.7781 20.9636C67.7781 20.9636 68.5461 21.2036 69.0821 21.6836C69.6181 22.1556 69.8861 22.8716 69.8861 23.8316V27.5156H68.1341V26.7116C67.7821 27.3116 67.1261 27.6116 66.1661 27.6116C65.6701 27.6116 65.2381 27.5276 64.8701 27.3596C64.5101 27.1916 64.2341 26.9596 64.0421 26.6636C63.8501 26.3676 63.7541 26.0316 63.7541 25.6556C63.7541 25.0556 63.9781 24.5836 64.4261 24.2396C64.8821 23.8956 65.5821 23.7236 66.5261 23.7236H68.0141C68.0141 23.3156 67.8901 23.0036 67.6421 22.7876C67.3941 22.5636 67.0221 22.4516 66.5261 22.4516C66.1821 22.4516 65.8421 22.5076 65.5061 22.6196C65.1781 22.7236 64.8981 22.8676 64.6661 23.0516L63.9941 21.7436C64.3461 21.4956 64.7661 21.3036 65.2541 21.1676C65.7501 21.0316 66.2581 20.9636 66.7781 20.9636ZM66.6341 26.3516C66.9541 26.3516 67.2381 26.2796 67.4861 26.1356C67.7341 25.9836 67.9101 25.7636 68.0141 25.4756V24.8156H66.7301C65.9621 24.8156 65.5781 25.0676 65.5781 25.5716C65.5781 25.8116 65.6701 26.0036 65.8541 26.1476C66.0461 26.2836 66.3061 26.3516 66.6341 26.3516ZM73.6323 21.2036H75.2883V22.6436H73.6803V27.5156H71.8083V22.6436H70.8123V21.2036H71.8083V20.9156C71.8083 20.1796 72.0243 19.5956 72.4563 19.1636C72.8963 18.7316 73.5123 18.5156 74.3043 18.5156C74.5843 18.5156 74.8483 18.5476 75.0963 18.6116C75.3523 18.6676 75.5643 18.7516 75.7323 18.8636L75.2403 20.2196C75.0243 20.0676 74.7723 19.9916 74.4843 19.9916C73.9163 19.9916 73.6323 20.3036 73.6323 20.9276V21.2036ZM80.3849 27.2036C80.2009 27.3396 79.9729 27.4436 79.7009 27.5156C79.4369 27.5796 79.1569 27.6116 78.8609 27.6116C78.0929 27.6116 77.4969 27.4156 77.0729 27.0236C76.6569 26.6316 76.4489 26.0556 76.4489 25.2956V22.6436H75.4529V21.2036H76.4489V19.6316H78.3209V21.2036H79.9289V22.6436H78.3209V25.2716C78.3209 25.5436 78.3889 25.7556 78.5249 25.9076C78.6689 26.0516 78.8689 26.1236 79.1249 26.1236C79.4209 26.1236 79.6729 26.0436 79.8809 25.8836L80.3849 27.2036ZM87.5606 24.3116C87.5606 24.3356 87.5486 24.5036 87.5246 24.8156H82.6406C82.7286 25.2156 82.9366 25.5316 83.2646 25.7636C83.5926 25.9956 84.0006 26.1116 84.4886 26.1116C84.8246 26.1116 85.1206 26.0636 85.3766 25.9676C85.6406 25.8636 85.8846 25.7036 86.1086 25.4876L87.1046 26.5676C86.4966 27.2636 85.6086 27.6116 84.4406 27.6116C83.7126 27.6116 83.0686 27.4716 82.5086 27.1916C81.9486 26.9036 81.5166 26.5076 81.2126 26.0036C80.9086 25.4996 80.7566 24.9276 80.7566 24.2876C80.7566 23.6556 80.9046 23.0876 81.2006 22.5836C81.5046 22.0716 81.9166 21.6756 82.4366 21.3956C82.9646 21.1076 83.5526 20.9636 84.2006 20.9636C84.8326 20.9636 85.4046 21.0996 85.9166 21.3716C86.4286 21.6436 86.8286 22.0356 87.1166 22.5476C87.4126 23.0516 87.5606 23.6396 87.5606 24.3116ZM84.2126 22.3796C83.7886 22.3796 83.4326 22.4996 83.1446 22.7396C82.8566 22.9796 82.6806 23.3076 82.6166 23.7236H85.7966C85.7326 23.3156 85.5566 22.9916 85.2686 22.7516C84.9806 22.5036 84.6286 22.3796 84.2126 22.3796ZM91.9269 27.6116C91.2389 27.6116 90.6189 27.4716 90.0669 27.1916C89.5229 26.9036 89.0949 26.5076 88.7829 26.0036C88.4789 25.4996 88.3269 24.9276 88.3269 24.2876C88.3269 23.6476 88.4789 23.0756 88.7829 22.5716C89.0949 22.0676 89.5229 21.6756 90.0669 21.3956C90.6189 21.1076 91.2389 20.9636 91.9269 20.9636C92.6069 20.9636 93.1989 21.1076 93.7029 21.3956C94.2149 21.6756 94.5869 22.0796 94.8189 22.6076L93.3669 23.3876C93.0309 22.7956 92.5469 22.4996 91.9149 22.4996C91.4269 22.4996 91.0229 22.6596 90.7029 22.9796C90.3829 23.2996 90.2229 23.7356 90.2229 24.2876C90.2229 24.8396 90.3829 25.2756 90.7029 25.5956C91.0229 25.9156 91.4269 26.0756 91.9149 26.0756C92.5549 26.0756 93.0389 25.7796 93.3669 25.1876L94.8189 25.9796C94.5869 26.4916 94.2149 26.8916 93.7029 27.1796C93.1989 27.4676 92.6069 27.6116 91.9269 27.6116ZM99.7738 20.9636C100.574 20.9636 101.218 21.2036 101.706 21.6836C102.202 22.1636 102.45 22.8756 102.45 23.8196V27.5156H100.578V24.1076C100.578 23.5956 100.466 23.2156 100.242 22.9676C100.018 22.7116 99.6938 22.5836 99.2698 22.5836C98.7978 22.5836 98.4218 22.7316 98.1418 23.0276C97.8618 23.3156 97.7218 23.7476 97.7218 24.3236V27.5156H95.8498V18.6116H97.7218V21.7316C97.9698 21.4836 98.2698 21.2956 98.6218 21.1676C98.9738 21.0316 99.3578 20.9636 99.7738 20.9636ZM103.691 26.6276L105.383 24.3356L103.691 22.0316H104.747L106.475 24.3356L104.747 26.6276H103.691ZM105.995 26.6276L107.687 24.3356L105.995 22.0316H107.051L108.779 24.3356L107.051 26.6276H105.995Z" fill="#353030"/>
</svg>
