<svg width="196" height="85" viewBox="0 0 196 85" fill="none" xmlns="http://www.w3.org/2000/svg">
<circle cx="42.5" cy="42.5381" r="42" fill="url(#paint0_radial)"/>
<path d="M24.0977 26.8838H14.6758V29.002H15.9678V38.5381H18.0859V29.002H24.0977V26.8838ZM29.7578 26.875C29.2305 26.8838 28.7207 26.9541 28.2373 27.0859C27.7451 27.2178 27.2793 27.4111 26.8486 27.6484C26.418 27.8857 26.0225 28.1758 25.6621 28.5098C25.3018 28.8525 24.9941 29.2217 24.7393 29.6348C24.4844 30.0479 24.2822 30.4961 24.1416 30.9707C23.9922 31.4541 23.9219 31.9551 23.9219 32.4736V38.5381H26.04V32.834C26.1631 32.7988 26.3037 32.7725 26.4619 32.7461C26.6113 32.7285 26.7695 32.7197 26.9189 32.7197C27.4199 32.7197 27.9033 32.8164 28.3604 33.0098C28.8086 33.2119 29.2129 33.4756 29.5557 33.8184C29.8984 34.1611 30.1709 34.5566 30.373 35.0137C30.5752 35.4707 30.6719 35.9541 30.6719 36.4727V38.5381H32.8252V28.9668H34.126V26.875H29.7578ZM30.6719 32.0254C29.5645 31.1201 28.2373 30.6631 26.6992 30.6631C26.8662 30.4082 27.0596 30.1797 27.2793 29.9688C27.499 29.7666 27.7363 29.582 28.0088 29.4326C28.2725 29.2832 28.5625 29.1689 28.8701 29.0898C29.1777 29.0107 29.4941 28.9668 29.8281 28.9668H30.6719V32.0254ZM40.2607 26.8838C39.7246 26.8926 39.2148 26.9629 38.7314 27.1035C38.2393 27.2529 37.7822 27.4463 37.3516 27.7012C36.9209 27.9561 36.5342 28.2637 36.1826 28.6152C35.8311 28.9756 35.5322 29.3623 35.2773 29.793C35.0225 30.2236 34.8291 30.6895 34.6973 31.1816C34.5566 31.6826 34.4863 32.1924 34.4863 32.7285V38.5381H36.5957V32.5352C36.5957 32.043 36.7012 31.5771 36.9033 31.1465C37.1055 30.7158 37.3779 30.3467 37.7207 30.0215C38.0635 29.7051 38.459 29.4502 38.9072 29.2656C39.3555 29.0811 39.8389 28.9844 40.3398 28.9844H41.1836V38.5381H43.2666V28.9844H44.5674V26.8838H40.2607ZM51.8008 26.8398V28.5625C51.2822 28.7822 50.7988 29.0459 50.3418 29.3447C49.8848 29.6523 49.4629 29.9688 49.0762 30.3115C48.6807 30.6543 48.3291 31.0059 48.0215 31.3662C47.7051 31.7266 47.4326 32.0781 47.2129 32.4121V26.8398H45.1035V38.5381H47.2129C47.2129 38.5381 47.2568 38.0371 47.3535 37.501C47.4414 36.9648 47.5732 36.4375 47.749 35.9189C47.9248 35.4004 48.1445 34.8994 48.3994 34.4072C48.6543 33.915 48.9531 33.458 49.2959 33.0273C49.6387 32.5967 50.0166 32.21 50.4385 31.8496C50.8516 31.498 51.3086 31.1992 51.8008 30.9531V38.5381H53.9014V26.8398H51.8008ZM64.3604 30.6455H63.5605V26.875H61.46V30.6455H60.6074C59.8955 30.6455 59.2188 30.7686 58.5947 31.0059C57.9619 31.2432 57.3906 31.5684 56.8896 31.9814V26.875H54.7891V38.5381H56.8896V36.2793C56.8896 35.7871 57.0303 35.3213 57.2324 34.8906C57.4346 34.46 57.707 34.082 58.0498 33.7568C58.3838 33.4404 58.7705 33.1855 59.2188 33.001C59.6582 32.8164 60.1328 32.7197 60.6426 32.7197H61.46V38.5381H63.5605V32.7197H64.3604V30.6455ZM70.9082 26.875C70.3809 26.8838 69.8711 26.9541 69.3877 27.0859C68.8955 27.2178 68.4297 27.4111 67.999 27.6484C67.5684 27.8857 67.1729 28.1758 66.8125 28.5098C66.4521 28.8525 66.1445 29.2217 65.8896 29.6348C65.6348 30.0479 65.4326 30.4961 65.292 30.9707C65.1426 31.4541 65.0723 31.9551 65.0723 32.4736V38.5381H67.1904V32.834C67.3135 32.7988 67.4541 32.7725 67.6123 32.7461C67.7617 32.7285 67.9199 32.7197 68.0693 32.7197C68.5703 32.7197 69.0537 32.8164 69.5107 33.0098C69.959 33.2119 70.3633 33.4756 70.7061 33.8184C71.0488 34.1611 71.3213 34.5566 71.5234 35.0137C71.7256 35.4707 71.8223 35.9541 71.8223 36.4727V38.5381H73.9756V28.9668H75.2764V26.875H70.9082ZM71.8223 32.0254C70.7148 31.1201 69.3877 30.6631 67.8496 30.6631C68.0166 30.4082 68.21 30.1797 68.4297 29.9688C68.6494 29.7666 68.8867 29.582 69.1592 29.4326C69.4229 29.2832 69.7129 29.1689 70.0205 29.0898C70.3281 29.0107 70.6445 28.9668 70.9785 28.9668H71.8223V32.0254Z" fill="#323232"/>
<path d="M35.7744 47.8398H25.6758V59.5381H27.7852V49.9229H32.373V59.5381H34.4736V49.9229H35.7744V47.8398ZM35.7832 53.7725C35.7832 54.3525 35.8623 54.915 36.0117 55.4512C36.1611 55.9873 36.3809 56.4971 36.6533 56.9629C36.9258 57.4287 37.2598 57.8594 37.6465 58.2461C38.0332 58.6328 38.4639 58.958 38.9297 59.2305C39.3955 59.5029 39.9053 59.7227 40.4414 59.8721C40.9775 60.0215 41.54 60.1006 42.1201 60.1006C42.7002 60.1006 43.2627 60.0215 43.7988 59.8721C44.335 59.7227 44.8447 59.5029 45.3105 59.2305C45.7764 58.958 46.207 58.6328 46.5938 58.2461C46.9805 57.8594 47.3145 57.4287 47.5869 56.9629C47.8594 56.4971 48.0791 55.9873 48.2285 55.4512C48.3779 54.915 48.457 54.3525 48.457 53.7725C48.457 53.1924 48.3779 52.6299 48.2285 52.0938C48.0791 51.5576 47.8594 51.0479 47.5869 50.582C47.3145 50.1162 46.9805 49.6855 46.5938 49.2988C46.207 48.9121 45.7764 48.5781 45.3105 48.3057C44.8447 48.0332 44.335 47.8223 43.7988 47.6729C43.2627 47.5234 42.7002 47.4443 42.1201 47.4443C41.54 47.4443 40.9775 47.5234 40.4414 47.6729C39.9053 47.8223 39.3955 48.0332 38.9297 48.3057C38.4639 48.5781 38.0332 48.9121 37.6465 49.2988C37.2598 49.6855 36.9258 50.1162 36.6533 50.582C36.3809 51.0479 36.1611 51.5576 36.0117 52.0938C35.8623 52.6299 35.7832 53.1924 35.7832 53.7725ZM42.1201 58C41.54 58 40.9951 57.8857 40.4854 57.6572C39.9668 57.4375 39.5186 57.1299 39.1406 56.7432C38.7627 56.3652 38.4551 55.917 38.2354 55.3984C38.0156 54.8887 37.9014 54.3438 37.9014 53.7725C37.9014 53.2012 38.0156 52.665 38.2354 52.1465C38.4551 51.6367 38.7627 51.1885 39.1494 50.8018C39.5273 50.4238 39.9756 50.1162 40.4941 49.8877C41.0039 49.668 41.5488 49.5537 42.1201 49.5537C42.6914 49.5537 43.2363 49.668 43.7461 49.8877C44.2559 50.1162 44.7041 50.4238 45.0908 50.8018C45.4688 51.1885 45.7764 51.6367 46.0049 52.1465C46.2246 52.6562 46.3389 53.2012 46.3389 53.7725C46.3389 54.335 46.2334 54.8711 46.0225 55.3809C45.8115 55.8994 45.5039 56.3564 45.1084 56.7695C44.6953 57.165 44.2383 57.4727 43.7373 57.6836C43.2275 57.8945 42.6914 58 42.1201 58ZM43.4648 54.7393H41.3643V52.6387H43.4648V54.7393ZM55.1104 47.8838C54.5742 47.8926 54.0645 47.9629 53.5811 48.1035C53.0889 48.2529 52.6318 48.4463 52.2012 48.7012C51.7705 48.9561 51.3838 49.2637 51.0322 49.6152C50.6807 49.9756 50.3818 50.3623 50.127 50.793C49.8721 51.2236 49.6787 51.6895 49.5469 52.1816C49.4062 52.6826 49.3359 53.1924 49.3359 53.7285V59.5381H51.4453V53.5352C51.4453 53.043 51.5508 52.5771 51.7529 52.1465C51.9551 51.7158 52.2275 51.3467 52.5703 51.0215C52.9131 50.7051 53.3086 50.4502 53.7568 50.2656C54.2051 50.0811 54.6885 49.9844 55.1895 49.9844H56.0332V59.5381H58.1162V49.9844H59.417V47.8838H55.1104ZM69.5684 57.4639C69.5684 56.9277 69.498 56.418 69.3574 55.917C69.2256 55.4248 69.0322 54.959 68.7773 54.5283C68.5225 54.0977 68.2236 53.7109 67.8721 53.3506C67.5205 52.999 67.1338 52.6914 66.7031 52.4365C66.2725 52.1816 65.8154 51.9883 65.3232 51.8389C64.8398 51.6982 64.3301 51.6279 63.7939 51.6191H62.8887V47.8838H60.7793V51.6191H60.1289V53.7197H60.7793V59.5381H69.5771V57.4639H69.5684ZM62.8887 57.4287V53.7197H63.7148C64.2158 53.7197 64.6992 53.8164 65.1475 54.001C65.5957 54.1855 65.9912 54.4404 66.334 54.7568C66.6768 55.082 66.9492 55.4512 67.1514 55.8818C67.3535 56.3125 67.459 56.7783 67.459 57.2705V57.4287H62.8887ZM81.9873 57.4287V47.8838H79.8867V57.4287H77.1445V47.8838H75.0615V57.2881C74.6836 57.1914 74.3408 57.0244 74.0156 56.8047C73.6904 56.585 73.4092 56.3213 73.1719 56.0137C72.9346 55.7148 72.7412 55.3809 72.6094 55.0117C72.4688 54.6514 72.3984 54.2734 72.3984 53.8867V47.8838H70.2891V54.0273C70.2891 54.5371 70.3594 55.0293 70.5088 55.4951C70.6494 55.9609 70.8516 56.4004 71.1064 56.8047C71.3613 57.2178 71.6602 57.5869 72.0205 57.9209C72.3809 58.2637 72.7676 58.5449 73.1982 58.7822C73.6289 59.0195 74.0859 59.2041 74.5693 59.3359C75.0527 59.4678 75.5537 59.5381 76.0635 59.5381H83.2881V57.4287H81.9873ZM90.6973 47.8398V49.5625C90.1787 49.7822 89.6953 50.0459 89.2383 50.3447C88.7812 50.6523 88.3594 50.9688 87.9727 51.3115C87.5771 51.6543 87.2256 52.0059 86.918 52.3662C86.6016 52.7266 86.3291 53.0781 86.1094 53.4121V47.8398H84V59.5381H86.1094C86.1094 59.5381 86.1533 59.0371 86.25 58.501C86.3379 57.9648 86.4697 57.4375 86.6455 56.9189C86.8213 56.4004 87.041 55.8994 87.2959 55.4072C87.5508 54.915 87.8496 54.458 88.1924 54.0273C88.5352 53.5967 88.9131 53.21 89.335 52.8496C89.748 52.498 90.2051 52.1992 90.6973 51.9531V59.5381H92.7979V47.8398H90.6973ZM103.591 57.4639C103.591 56.9277 103.521 56.418 103.38 55.917C103.248 55.4248 103.055 54.959 102.8 54.5283C102.545 54.0977 102.246 53.7109 101.895 53.3506C101.543 52.999 101.156 52.6914 100.726 52.4365L100.629 52.3838C100.77 52.2607 100.919 52.1289 101.051 51.9971C101.402 51.6367 101.701 51.25 101.956 50.8193C102.211 50.3887 102.404 49.9229 102.536 49.4307C102.677 48.9297 102.747 48.4199 102.747 47.8838H100.638V48.0771C100.638 48.5693 100.532 49.0352 100.33 49.4658C100.128 49.8965 99.8555 50.2656 99.5127 50.5908C99.1699 50.9072 98.7744 51.1621 98.3262 51.3467C97.9307 51.5049 97.5 51.6016 97.0605 51.6191H96.9111V47.8838H93.5098V49.9844H94.8018V51.6279H94.1602V53.7285H94.8018V59.5381H96.9111V53.7197H97.7373C98.2383 53.7197 98.7217 53.8164 99.1699 54.001C99.6182 54.1855 100.014 54.4404 100.356 54.7568C100.699 55.082 100.972 55.4512 101.174 55.8818C101.376 56.3125 101.481 56.7783 101.481 57.2705V59.5381H103.6V57.4639H103.591ZM103.951 53.7725C103.951 54.3525 104.03 54.915 104.18 55.4512C104.329 55.9873 104.549 56.4971 104.821 56.9629C105.094 57.4287 105.428 57.8594 105.814 58.2461C106.201 58.6328 106.632 58.958 107.098 59.2305C107.563 59.5029 108.073 59.7227 108.609 59.8721C109.146 60.0215 109.708 60.1006 110.288 60.1006C110.868 60.1006 111.431 60.0215 111.967 59.8721C112.503 59.7227 113.013 59.5029 113.479 59.2305C113.944 58.958 114.375 58.6328 114.762 58.2461C115.148 57.8594 115.482 57.4287 115.755 56.9629C116.027 56.4971 116.247 55.9873 116.396 55.4512C116.546 54.915 116.625 54.3525 116.625 53.7725C116.625 53.1924 116.546 52.6299 116.396 52.0938C116.247 51.5576 116.027 51.0479 115.755 50.582C115.482 50.1162 115.148 49.6855 114.762 49.2988C114.375 48.9121 113.944 48.5781 113.479 48.3057C113.013 48.0332 112.503 47.8223 111.967 47.6729C111.431 47.5234 110.868 47.4443 110.288 47.4443C109.708 47.4443 109.146 47.5234 108.609 47.6729C108.073 47.8223 107.563 48.0332 107.098 48.3057C106.632 48.5781 106.201 48.9121 105.814 49.2988C105.428 49.6855 105.094 50.1162 104.821 50.582C104.549 51.0479 104.329 51.5576 104.18 52.0938C104.03 52.6299 103.951 53.1924 103.951 53.7725ZM110.288 58C109.708 58 109.163 57.8857 108.653 57.6572C108.135 57.4375 107.687 57.1299 107.309 56.7432C106.931 56.3652 106.623 55.917 106.403 55.3984C106.184 54.8887 106.069 54.3438 106.069 53.7725C106.069 53.2012 106.184 52.665 106.403 52.1465C106.623 51.6367 106.931 51.1885 107.317 50.8018C107.695 50.4238 108.144 50.1162 108.662 49.8877C109.172 49.668 109.717 49.5537 110.288 49.5537C110.859 49.5537 111.404 49.668 111.914 49.8877C112.424 50.1162 112.872 50.4238 113.259 50.8018C113.637 51.1885 113.944 51.6367 114.173 52.1465C114.393 52.6562 114.507 53.2012 114.507 53.7725C114.507 54.335 114.401 54.8711 114.19 55.3809C113.979 55.8994 113.672 56.3564 113.276 56.7695C112.863 57.165 112.406 57.4727 111.905 57.6836C111.396 57.8945 110.859 58 110.288 58ZM111.633 54.7393H109.532V52.6387H111.633V54.7393ZM126.319 55.917C126.188 55.4248 125.994 54.959 125.739 54.5283C125.484 54.0977 125.186 53.7109 124.834 53.3506C124.482 52.999 124.096 52.6914 123.665 52.4365L123.568 52.3838C123.709 52.2607 123.85 52.1289 123.99 51.9971C124.342 51.6367 124.641 51.25 124.896 50.8193C125.15 50.3887 125.344 49.9229 125.476 49.4307C125.616 48.9297 125.687 48.4199 125.687 47.8838H116.449V49.9844H117.741V51.6279H117.1V53.7285H117.741V59.5381H126.539V57.4639C126.539 56.9277 126.46 56.418 126.319 55.917ZM119.851 49.9844H122.971C122.821 50.2041 122.646 50.4062 122.452 50.5908C122.109 50.9072 121.714 51.1621 121.266 51.3467C120.87 51.5049 120.439 51.6016 120 51.6191H119.851V49.9844ZM124.421 57.4375H119.851V53.7197H120.677C121.178 53.7197 121.661 53.8164 122.109 54.001C122.558 54.1855 122.953 54.4404 123.296 54.7568C123.639 55.082 123.911 55.4512 124.113 55.8818C124.315 56.3125 124.421 56.7783 124.421 57.2705V57.4375ZM133.078 47.875C132.551 47.8838 132.041 47.9541 131.558 48.0859C131.065 48.2178 130.6 48.4111 130.169 48.6484C129.738 48.8857 129.343 49.1758 128.982 49.5098C128.622 49.8525 128.314 50.2217 128.06 50.6348C127.805 51.0479 127.603 51.4961 127.462 51.9707C127.312 52.4541 127.242 52.9551 127.242 53.4736V59.5381H129.36V53.834C129.483 53.7988 129.624 53.7725 129.782 53.7461C129.932 53.7285 130.09 53.7197 130.239 53.7197C130.74 53.7197 131.224 53.8164 131.681 54.0098C132.129 54.2119 132.533 54.4756 132.876 54.8184C133.219 55.1611 133.491 55.5566 133.693 56.0137C133.896 56.4707 133.992 56.9541 133.992 57.4727V59.5381H136.146V49.9668H137.446V47.875H133.078ZM133.992 53.0254C132.885 52.1201 131.558 51.6631 130.02 51.6631C130.187 51.4082 130.38 51.1797 130.6 50.9688C130.819 50.7666 131.057 50.582 131.329 50.4326C131.593 50.2832 131.883 50.1689 132.19 50.0898C132.498 50.0107 132.814 49.9668 133.148 49.9668H133.992V53.0254Z" fill="#323232"/>
<defs>
<radialGradient id="paint0_radial" cx="0" cy="0" r="1" gradientUnits="userSpaceOnUse" gradientTransform="translate(-6 38.5381) rotate(0.633077) scale(90.5055 120.499)">
<stop stop-color="#FF8AB4"/>
<stop offset="1" stop-color="#FF8AB4" stop-opacity="0"/>
</radialGradient>
</defs>
</svg>
