<svg width="30" height="29" viewBox="0 0 30 29" fill="none" xmlns="http://www.w3.org/2000/svg">
<path d="M19.8775 20.9408L22.2115 9.5678C22.3067 9.0864 22.2512 8.74176 22.0448 8.53389C21.8384 8.32601 21.5658 8.28772 21.2271 8.41901L7.50913 13.884C7.20216 14.0043 6.99311 14.1411 6.88197 14.2943C6.77083 14.4474 6.7576 14.5924 6.84228 14.7292C6.92696 14.8659 7.09632 14.9726 7.35035 15.0492L10.8592 16.1816L19.0043 10.8807C19.2265 10.7275 19.3959 10.6947 19.5123 10.7822C19.5864 10.8369 19.5653 10.919 19.4488 11.0284L12.8598 17.1826L12.6057 20.9244C12.8492 20.9244 13.0873 20.8041 13.3202 20.5634L15.0349 18.8566L18.5915 21.5645C19.2689 21.9583 19.6976 21.7505 19.8775 20.9408Z" fill="#323232"/>
<path d="M28.4769 14.5381C28.4769 21.9648 22.46 27.9844 15.039 27.9844C7.61799 27.9844 1.60107 21.9648 1.60107 14.5381C1.60107 7.11136 7.61799 1.0918 15.039 1.0918C22.46 1.0918 28.4769 7.11136 28.4769 14.5381Z" stroke="#323232" stroke-width="2"/>
</svg>
