<svg width="29" height="29" viewBox="0 0 29 29" fill="none" xmlns="http://www.w3.org/2000/svg">
<path d="M14.6011 2.43815C8.23982 2.43815 3.06857 7.61237 3.05982 13.9773C3.05982 16.1573 3.67232 18.2848 4.82732 20.1146L5.09857 20.5523L3.93482 24.8073L8.30107 23.6604L8.72107 23.9142C10.4886 24.9649 12.5186 25.5252 14.5923 25.5252H14.6011C20.9536 25.5252 26.2648 20.3509 26.2648 13.986C26.2648 10.9043 24.9348 8.00635 22.7561 5.82635C20.5686 3.63759 17.6811 2.43815 14.6011 2.43815ZM21.3823 18.9326C21.0936 19.7469 19.7111 20.4823 19.0461 20.5786C17.9436 20.7449 17.0861 20.6574 14.8898 19.7118C11.4161 18.206 9.14107 14.7039 8.96607 14.4763C8.79107 14.2487 7.54857 12.594 7.54857 10.8868C7.54857 9.17952 8.44107 8.33904 8.76482 7.98884C9.07982 7.63864 9.45607 7.55109 9.69232 7.55109C9.91982 7.55109 10.1561 7.55109 10.3573 7.55984C10.5673 7.5686 10.8561 7.48105 11.1361 8.15519C11.4248 8.84683 12.1161 10.5541 12.2036 10.7292C12.2911 10.9043 12.3523 11.1056 12.2298 11.3333C11.5648 12.664 10.8561 12.6115 11.2148 13.2243C12.5536 15.5269 13.8923 16.3236 15.9311 17.348C16.2811 17.5231 16.4823 17.4968 16.6836 17.2604C16.8848 17.0328 17.5498 16.2448 17.7773 15.9034C18.0048 15.5532 18.2411 15.6145 18.5561 15.7283C18.8711 15.8421 20.5773 16.6826 20.9273 16.8577C21.2773 17.0328 21.5048 17.1203 21.5923 17.2604C21.6711 17.4268 21.6711 18.1272 21.3823 18.9326ZM14.5923 27.8628C12.2648 27.8628 9.98107 27.2762 7.95982 26.173L0.601074 28.1079L2.56982 20.9113C1.35357 18.8101 0.714824 16.4199 0.714824 13.9685C0.723574 6.31663 6.94482 0.0917969 14.5923 0.0917969C18.3023 0.0917969 21.7848 1.53638 24.4098 4.16289C27.0261 6.7894 28.6011 10.2739 28.6011 13.986C28.6011 21.6379 22.2398 27.8628 14.5923 27.8628Z" fill="#323232"/>
</svg>
