<svg width="74" height="73" viewBox="0 0 74 73" fill="none" xmlns="http://www.w3.org/2000/svg">
<path d="M8.71935 45.0299L8.7232 45.0107L8.72553 44.9912L13.944 1.28992C14.0165 0.974396 14.3536 0.700375 14.6736 0.68658L72.7406 7.60868C73.2116 7.69194 73.3875 8.04602 73.3437 8.26494L73.3399 8.28418L73.3375 8.30366L68.1179 52.0148C68.0346 52.4868 67.6805 52.6622 67.4624 52.6185L67.4431 52.6147L67.4235 52.6123L9.32241 45.6862C8.85145 45.6029 8.67559 45.2488 8.71935 45.0299Z" fill="url(#paint0_linear)" stroke="white"/>
<path d="M50.8385 24.4197L51.4671 24.3625L51.2676 23.7637C51.1617 23.446 51.0714 23.0663 51.0664 22.8081C51.1677 21.8337 52.0505 21.0655 53.0868 21.2338C53.6077 21.3392 54.0235 21.5315 54.2523 21.8367L54.9046 22.7071L55.1404 21.6453C55.5371 19.8592 57.2261 18.6526 59.1401 18.8542L59.1427 18.8545C61.1275 19.0531 62.6412 20.9563 62.4406 22.9635L62.4381 22.9883V23.0132C62.4381 23.0665 62.4228 23.1539 62.391 23.3127C62.3897 23.3195 62.3883 23.3264 62.3869 23.3336C62.3617 23.459 62.3246 23.6437 62.3246 23.8082V24.3082H62.8246H62.8259H62.8273H62.8286H62.8299H62.8313H62.8326H62.8339H62.8352H62.8366H62.8379H62.8392H62.8406H62.8419H62.8432H62.8446H62.8459H62.8472H62.8486H62.8499H62.8512H62.8525H62.8539H62.8552H62.8565H62.8579H62.8592H62.8605H62.8619H62.8632H62.8645H62.8659H62.8672H62.8685H62.8699H62.8712H62.8725H62.8739H62.8752H62.8765H62.8779H62.8792H62.8805H62.8819H62.8832H62.8845H62.8859H62.8872H62.8885H62.8899H62.8912H62.8926H62.8939H62.8952H62.8966H62.8979H62.8992H62.9006H62.9019H62.9033H62.9046H62.9059H62.9073H62.9086H62.91H62.9113H62.9126H62.914H62.9153H62.9167H62.918H62.9193H62.9207H62.922H62.9234H62.9247H62.9261H62.9274H62.9288H62.9301H62.9314H62.9328H62.9341H62.9355H62.9368H62.9382H62.9395H62.9409H62.9422H62.9436H62.9449H62.9463H62.9476H62.949H62.9503H62.9517H62.953H62.9544H62.9558H62.9571H62.9585H62.9598H62.9612H62.9625H62.9639H62.9652H62.9666H62.968H62.9693H62.9707H62.972H62.9734H62.9748H62.9761H62.9775H62.9789H62.9802H62.9816H62.9829H62.9843H62.9857H62.987H62.9884H62.9898H62.9911H62.9925H62.9939H62.9953H62.9966H62.998H62.9994H63.0007H63.0021H63.0035H63.0049H63.0062H63.0076H63.009H63.0104H63.0118H63.0131H63.0145H63.0159H63.0173H63.0187H63.02H63.0214H63.0228H63.0242H63.0256H63.027H63.0284H63.0297H63.0311H63.0325H63.0339H63.0353H63.0367H63.0381H63.0395H63.0409H63.0423H63.0437H63.0451H63.0465H63.0479H63.0493H63.0507H63.0521H63.0535H63.0549H63.0563H63.0577H63.0591H63.0605H63.0619H63.0633H63.0647H63.0661H63.0675H63.069H63.0704H63.0718H63.0732H63.0746H63.076H63.0774H63.0789H63.0803H63.0817H63.0831H63.0845H63.086H63.0874H63.0888H63.0902H63.0917H63.0931H63.0945H63.096H63.0974H63.0988H63.1003H63.1017H63.1031H63.1046H63.106H63.1074H63.1089H63.1103H63.1118H63.1132H63.1146H63.1161H63.1175H63.119H63.1204H63.1219H63.1233H63.1248H63.1262H63.1277H63.1291H63.1306H63.132H63.1335H63.135H63.1364H63.1379H63.1393H63.1408H63.1423H63.1437H63.1452H63.1467H63.1481H63.1496H63.1511H63.1526H63.154H63.1555H63.157H63.1585H63.1599H63.1614H63.1629H63.1644H63.1659H63.1674H63.1689H63.1703H63.1718H63.1733H63.1748H63.1763H63.1778H63.1793H63.1808H63.1823H63.1838H63.1853H63.1868H63.1883H63.1898H63.1913H63.1928H63.1943H63.1958H63.1973H63.1989H63.2004H63.2019H63.2034H63.2049H63.2064H63.208H63.2095H63.211H63.2125H63.2141H63.2156H63.2171H63.2187H63.2202H63.2217H63.2233H63.2248H63.2263H63.2279H63.2294H63.231H63.2325H63.234H63.2356H63.2371H63.2387H63.2402H63.2418H63.2433H63.2449H63.2465H63.248H63.2496H63.2511H63.2527H63.2543H63.2558H63.2574H63.259H63.2605H63.2621H63.2637H63.2653H63.2669H63.2684H63.27H63.2716H63.2732H63.2748H63.2764H63.2779H63.2795H63.2811H63.2827H63.2843H63.2859H63.2875H63.2891H63.2907H63.2923H63.2939H63.2955H63.2971H63.2987H63.3004H63.302H63.3036H63.3052H63.3068H63.3084H63.3101H63.3117H63.3133H63.3149H63.3166H63.3182H63.3198H63.3215H63.3231H63.3247H63.3264H63.328H63.3297H63.3313H63.333H63.3346H63.3363H63.3379H63.3396H63.3412H63.3429H63.3445H63.3462H63.3479H63.3495H63.3512H63.3529H63.3545H63.3562H63.3579H63.3596H63.3612H63.3629H63.3646H63.3663H63.368H63.3697H63.3714H63.373H63.3747H63.3764H63.3781H63.3798H63.3815H63.3832H63.3849H63.3867H63.3884H63.3901H63.3918H63.3935H63.3952H63.3969H63.3987H63.4004H63.4021H63.4038H63.4056H63.4073H63.409H63.4108H63.4125H63.4142H63.416H63.4177H63.4195H63.4212H63.423H63.4247H63.4265H63.4282H63.43H63.4317H63.4335H63.4353H63.437H63.4388H63.4406H63.4423H63.4441H63.4459H63.4477H63.4495H63.4512H63.453H63.4548H63.4566H63.4584H63.4602H63.462H63.4638H63.4656H63.4674H63.4692H63.471H63.4728H63.4746H63.4764H63.4782H63.4801H63.4819H63.4837H63.4855H63.4873H63.4892H63.491H63.4928H63.4947H63.4965H63.4984H63.5002H63.502H63.5039H63.5057H63.5076H63.5094H63.5113H63.5132H63.515H63.5169H63.5188H63.5206H63.5225H63.5244H63.5262H63.5281H63.53H63.5319H63.5338H63.5357H63.5375H63.5394H63.5413H63.5432H63.5451H63.547H63.5489H63.5508H63.5527H63.5547H63.5566H63.5585H63.5604H63.5623H63.5642H63.5662H63.5681H63.57H63.572H63.5739H63.5758H63.5778H63.5797H63.5817H63.5836H63.5856H63.5875H63.5887C65.245 24.5179 66.4935 25.9798 66.3005 27.7263C66.1031 29.3978 64.6347 30.6611 62.8799 30.466L62.8799 30.4659L62.8699 30.465C61.6297 30.3522 51.6479 29.2174 50.7418 29.104L50.73 29.1025L50.7181 29.1016C49.5454 29.0114 48.5954 27.9194 48.68 26.5896C48.8812 25.3382 49.8374 24.5108 50.8385 24.4197Z" fill="url(#paint1_linear)" stroke="white"/>
<path d="M60.7815 72.4832H2.32717C2.10037 72.4832 1.95019 72.4097 1.85793 72.3174C1.76564 72.2251 1.69214 72.0746 1.69214 71.8475V27.7831C1.69214 27.556 1.76564 27.4056 1.85793 27.3132C1.95019 27.2209 2.10037 27.1475 2.32717 27.1475H60.7815C61.0083 27.1475 61.1584 27.2209 61.2507 27.3132C61.343 27.4056 61.4165 27.556 61.4165 27.7831V71.8475C61.4165 71.9689 61.3508 72.1321 61.2081 72.2748C61.0655 72.4176 60.9025 72.4832 60.7815 72.4832Z" fill="url(#paint2_linear)" stroke="white"/>
<path d="M44.7313 48.9064C44.7313 56.7843 38.3487 63.1702 30.4759 63.1702C22.6031 63.1702 16.2205 56.7843 16.2205 48.9064C16.2205 41.0284 22.6031 34.6426 30.4759 34.6426C38.3487 34.6426 44.7313 41.0284 44.7313 48.9064Z" fill="url(#paint3_linear)" stroke="white"/>
<path d="M49.1877 34.0905C48.6293 34.4713 48.1176 34.9489 47.6542 35.4898L47.6417 35.5044L47.6286 35.5175M49.1877 34.0905L41.9499 32.3474C42.7658 32.6669 43.5249 33.0907 44.1896 33.6449C44.1994 33.6531 44.2092 33.6613 44.219 33.6696C44.2331 33.6815 44.2472 33.6934 44.2613 33.7054M49.1877 34.0905C48.6985 34.5745 48.2837 35.1153 47.996 35.6695C47.8553 35.8287 47.7798 35.9876 47.7285 36.1246C47.6974 36.2075 47.6815 36.2575 47.6694 36.2951C47.6545 36.3416 47.6457 36.3694 47.6218 36.4172C47.5931 36.4746 47.5541 36.5227 47.5135 36.5531C47.478 36.5798 47.4397 36.595 47.388 36.595H46.4799C46.3592 36.595 46.3228 36.5738 46.3194 36.5717C46.3187 36.5712 46.3158 36.5697 46.3098 36.5615C46.3027 36.5517 46.2886 36.5287 46.2733 36.4827L46.236 36.3707L46.165 36.2997M49.1877 34.0905L46.165 36.2997M47.6286 35.5175L47.6281 35.518C47.629 35.5171 47.6292 35.5167 47.6286 35.5175ZM47.6286 35.5175C47.6279 35.5183 47.6262 35.5206 47.6232 35.5252C47.6196 35.5306 47.6156 35.5368 47.608 35.5491L47.6064 35.5518C47.6 35.5622 47.5888 35.5802 47.577 35.5979C47.553 35.6339 47.4972 35.7148 47.4017 35.7817C47.2921 35.8584 47.1685 35.8916 47.0475 35.8916H46.8403L46.6938 35.7451C46.6662 35.7174 46.6423 35.6902 46.6217 35.6645M46.6217 35.6645H46.7744H46.8205C46.8077 35.6645 46.7932 35.6638 46.7772 35.6618C46.7581 35.6594 46.737 35.6553 46.7144 35.6485C46.6721 35.6358 46.6339 35.6166 46.601 35.5936C46.5694 35.5714 46.5478 35.5493 46.5353 35.5349C46.529 35.5277 46.5245 35.5218 46.5218 35.5182L46.5188 35.5141L46.5181 35.5131L46.5187 35.514L46.5212 35.5179L46.5303 35.5326L46.5304 35.5328C46.5379 35.5449 46.5499 35.5643 46.564 35.5855C46.5796 35.6089 46.5986 35.6358 46.6217 35.6645ZM46.6217 35.6645H46.5704L46.4204 35.4644C45.809 34.6488 45.0982 34.13 44.2613 33.7054M44.2613 33.7054C44.953 34.2962 45.5409 35.006 45.9057 35.7359C45.9501 35.8247 45.9993 35.9395 46.0401 36.0346C46.0571 36.0741 46.0725 36.1102 46.0856 36.1397C46.1121 36.1993 46.1337 36.2443 46.1516 36.2769C46.1578 36.2879 46.1622 36.2953 46.165 36.2997M44.2613 33.7054L46.165 36.2997" fill="url(#paint4_linear)" stroke="white"/>
<path d="M45.5621 42.1883C44.382 42.6862 43.2822 43.3177 42.311 44.0849L42.2995 44.0939L42.2886 44.1036C41.2502 45.027 40.2978 46.0892 39.6902 47.2926C39.4425 47.6727 39.3146 48.0496 39.2077 48.3703C39.0379 48.6863 38.7436 48.8601 38.5347 48.8601H37.0592C36.6842 48.8601 36.4587 48.6417 36.4093 48.444L36.4046 48.4254L36.3985 48.4072L36.3972 48.4031C36.2829 48.0603 36.1603 47.6921 35.9174 47.2062C35.3104 45.9916 34.3515 44.9204 33.3053 43.99L33.2944 43.9804L33.283 43.9713C32.5221 43.3704 31.6834 42.8663 30.7902 42.4489C31.7348 42.7169 32.6572 43.0816 33.5294 43.5542L33.5366 43.5581L33.5439 43.5618C34.8044 44.1923 35.9667 45.1324 36.9287 46.387C36.9547 46.4848 36.9933 46.5709 37.0234 46.6312C37.0815 46.7474 37.1669 46.882 37.2731 46.9883L38.1267 47.8423V46.6348C38.1267 46.6278 38.1271 46.6233 38.1274 46.6207C38.1296 46.6175 38.1346 46.6105 38.1454 46.5982C38.1599 46.5817 38.1772 46.5643 38.2074 46.534L38.2325 46.5089L38.2538 46.4805C39.2175 45.195 40.4004 44.3276 41.731 43.5504C42.9261 42.9038 44.2165 42.4593 45.5621 42.1883Z" fill="url(#paint5_linear)" stroke="white"/>
<path d="M20.1471 11.9284H20.8407L20.6215 11.2704C20.4966 10.8955 20.4561 10.7201 20.508 10.5644L20.5256 10.5115L20.5311 10.4561C20.6177 9.58999 21.3972 9.00416 22.1349 9.08617L22.1625 9.08923H22.1902C22.5245 9.08923 22.728 9.26684 23.0851 9.6241L23.6984 10.2378L23.9218 9.39941C24.3202 7.90478 25.6998 6.84903 27.2358 7.04115L27.2394 7.04158C28.9027 7.23738 30.1732 8.81306 29.9794 10.4615L29.9759 10.4906V10.5199C29.9759 10.5612 29.9654 10.6141 29.9341 10.7394C29.9328 10.7445 29.9315 10.7498 29.9301 10.7552C29.9041 10.8587 29.8624 11.0248 29.8624 11.2013V11.7013H30.3624H30.3638H30.3651H30.3664H30.3677H30.3691H30.3704H30.3717H30.3731H30.3744H30.3757H30.3771H30.3784H30.3797H30.381H30.3824H30.3837H30.385H30.3864H30.3877H30.389H30.3904H30.3917H30.393H30.3943H30.3957H30.397H30.3983H30.3997H30.401H30.4023H30.4037H30.405H30.4063H30.4076H30.409H30.4103H30.4116H30.413H30.4143H30.4156H30.417H30.4183H30.4196H30.4209H30.4223H30.4236H30.4249H30.4263H30.4276H30.4289H30.4303H30.4316H30.4329H30.4342H30.4356H30.4369H30.4382H30.4396H30.4409H30.4422H30.4436H30.4449H30.4462H30.4476H30.4489H30.4502H30.4515H30.4529H30.4542H30.4555H30.4569H30.4582H30.4595H30.4609H30.4622H30.4635H30.4648H30.4662H30.4675H30.4688H30.4702H30.4715H30.4728H30.4742H30.4755H30.4768H30.4781H30.4795H30.4808H30.4821H30.4835H30.4848H30.4861H30.4875H30.4888H30.4901H30.4914H30.4928H30.4941H30.4954H30.4968H30.4981H30.4994H30.5008H30.5021H30.5034H30.5047H30.5061H30.5074H30.5087H30.5101H30.5114H30.5127H30.5141H30.5154H30.5167H30.518H30.5194H30.5207H30.522H30.5234H30.5247H30.526H30.5274H30.5287H30.53H30.5313H30.5327H30.534H30.5353H30.5367H30.538H30.5393H30.5407H30.542H30.5433H30.5447H30.546H30.5473H30.5486H30.55H30.5513H30.5526H30.554H30.5553H30.5566H30.558H30.5593H30.5606H30.5619H30.5633H30.5646H30.5659H30.5673H30.5686H30.5699H30.5713H30.5726H30.5739H30.5752H30.5766H30.5779H30.5792H30.5806H30.5819H30.5832H30.5846H30.5859H30.5872H30.5885H30.5899H30.5912H30.5925H30.5939H30.5952H30.5965H30.5979H30.5992H30.6005H30.6018H30.6032H30.6045H30.6058H30.6072H30.6085H30.6098H30.6112H30.6125H30.6138H30.6151H30.6165H30.6178H30.6191H30.6205H30.6218H30.6231H30.6245H30.6258H30.6271H30.6284H30.6298H30.6311H30.6324H30.6338H30.6351H30.6364H30.6378H30.6391H30.6404H30.6418H30.6431H30.6444H30.6457H30.6471H30.6484H30.6497H30.6511H30.6524H30.6537H30.6551H30.6564H30.6577H30.659H30.6604H30.6617H30.663H30.6644H30.6657H30.667H30.6684H30.6697H30.671H30.6723H30.6737H30.675H30.6763H30.6777H30.679H30.6803H30.6817H30.683H30.6843H30.6856H30.687H30.6883H30.6896H30.691H30.6923H30.6936H30.695H30.6963H30.6976H30.6989H30.7003H30.7016H30.7029H30.7043H30.7056H30.7069H30.7083H30.7096H30.7109H30.7122H30.7136H30.7149H30.7162H30.7176H30.7189H30.7202H30.7216H30.7229H30.7242H30.7255H30.7269H30.7282H30.7295H30.7309H30.7322H30.7335H30.7349H30.7362H30.7375H30.7389H30.7402H30.7415H30.7428H30.7442H30.7455H30.7468H30.7482H30.7495H30.7508H30.7522H30.7535H30.7548H30.7561H30.7575H30.7588H30.7601H30.7615H30.7628H30.7641H30.7655H30.7668H30.7681H30.7694H30.7708H30.7721H30.7734H30.7748H30.7761H30.7774H30.7788H30.7801H30.7814H30.7827H30.7841H30.7854H30.7867H30.7881H30.7894H30.7907H30.7921H30.7934H30.7947H30.796H30.7974H30.7987H30.8H30.8014H30.8027H30.804H30.8054H30.8067H30.808H30.8093H30.8107H30.812H30.8133H30.8147H30.816H30.8173H30.8187H30.82H30.8213H30.8226H30.824H30.8253H30.8266H30.828H30.8293H30.8306H30.832H30.8333H30.8346H30.836H30.8373H30.8386H30.8399H30.8413H30.8426H30.8439H30.8453H30.8466H30.8479H30.8493H30.8506H30.8519H30.8532H30.8546H30.8559H30.8572H30.8586H30.8599H30.8612H30.8626H30.8639H30.8652H30.8665H30.8679H30.8692H30.8705H30.8719H30.8732H30.8745H30.8759H30.8772H30.8785H30.8798H30.8812H30.8825H30.8838H30.8852H30.8865H30.8878H30.8892H30.8905H30.8918H30.8931H30.8945H30.8958H30.8971H30.8985H30.8998H30.9011H30.9025H30.9038H30.9051H30.9064H30.9078H30.9091H30.9104H30.9118H30.9131H30.9144H30.9158H30.9171H30.9184H30.9197H30.9211H30.9224H30.9237H30.9251H30.9264H30.9277H30.9291H30.9304H30.9317H30.9331H30.9344H30.9357H30.937H30.9384H30.9397H30.941H30.9424H30.9437H30.945H30.9464H30.9477H30.949H30.9503H30.9517H30.953H30.9543H30.9557H30.957H30.9583H30.9597H30.961H30.9623H30.9636H30.965H30.9663H30.9676H30.969H30.9703H30.9716H30.973H30.9743H30.9756H30.9769H30.9783H30.9796H30.9809H30.9823H30.9836H30.9849H30.9863H30.9876H30.9889H30.9902H30.9916H30.9929H30.9942H30.9956H30.9969H30.9982H30.9996H31.0009H31.0022H31.0035H31.0049H31.0062H31.0075H31.0089H31.0089C32.4235 11.9062 33.3558 13.1302 33.2698 14.444C33.0718 15.8712 31.8406 16.8119 30.5209 16.7224C30.2419 16.6914 29.4714 16.6083 28.4686 16.5001C25.5902 16.1896 20.7977 15.6727 20.2179 15.5898L20.2052 15.588L20.1924 15.5868C19.2058 15.4971 18.4224 14.6042 18.5972 13.5548L18.604 13.514V13.4727C18.604 12.6129 19.2885 11.9284 20.1471 11.9284Z" fill="url(#paint6_linear)" stroke="white"/>
<path d="M49.4985 15.1759C49.4985 18.0361 47.1813 20.3542 44.3234 20.3542C41.4655 20.3542 39.1482 18.0361 39.1482 15.1759C39.1482 12.3157 41.4655 9.99756 44.3234 9.99756C47.1813 9.99756 49.4985 12.3157 49.4985 15.1759Z" fill="url(#paint7_linear)" stroke="white"/>
<path d="M7.27847 35.0915L7.96503 34.9934L7.65498 34.373C7.54343 34.1498 7.48071 34.0149 7.48071 33.8016C7.48071 33.2827 7.93808 32.8254 8.45624 32.8254C8.57597 32.8254 8.71221 32.8461 8.83003 32.8914C8.94733 32.9366 9.02085 32.9956 9.06171 33.0569L9.76314 34.1095L9.971 32.8618C10.1608 31.7225 11.1018 30.895 12.2019 30.895C13.4011 30.895 14.4259 31.92 14.4259 33.1203V33.1216V33.123V33.1243V33.1256V33.1269V33.1283V33.1296V33.1309V33.1322V33.1335V33.1348V33.1361V33.1374V33.1387V33.14V33.1413V33.1426V33.1439V33.1451V33.1464V33.1477V33.149V33.1502V33.1515V33.1528V33.1541V33.1553V33.1566V33.1578V33.1591V33.1603V33.1616V33.1628V33.1641V33.1653V33.1666V33.1678V33.1691V33.1703V33.1715V33.1727V33.174V33.1752V33.1764V33.1776V33.1789V33.1801V33.1813V33.1825V33.1837V33.1849V33.1861V33.1873V33.1885V33.1897V33.1909V33.1921V33.1933V33.1945V33.1957V33.1968V33.198V33.1992V33.2004V33.2016V33.2027V33.2039V33.2051V33.2062V33.2074V33.2085V33.2097V33.2109V33.212V33.2132V33.2143V33.2155V33.2166V33.2177V33.2189V33.22V33.2212V33.2223V33.2234V33.2246V33.2257V33.2268V33.2279V33.2291V33.2302V33.2313V33.2324V33.2335V33.2346V33.2357V33.2368V33.2379V33.239V33.2401V33.2412V33.2423V33.2434V33.2445V33.2456V33.2467V33.2478V33.2489V33.2499V33.251V33.2521V33.2532V33.2542V33.2553V33.2564V33.2574V33.2585V33.2596V33.2606V33.2617V33.2627V33.2638V33.2649V33.2659V33.267V33.268V33.269V33.2701V33.2711V33.2722V33.2732V33.2742V33.2753V33.2763V33.2773V33.2784V33.2794V33.2804V33.2814V33.2824V33.2835V33.2845V33.2855V33.2865V33.2875V33.2885V33.2895V33.2905V33.2915V33.2925V33.2935V33.2945V33.2955V33.2965V33.2975V33.2985V33.2995V33.3005V33.3015V33.3024V33.3034V33.3044V33.3054V33.3064V33.3073V33.3083V33.3093V33.3102V33.3112V33.3122V33.3131V33.3141V33.3151V33.316V33.317V33.3179V33.3189V33.3198V33.3208V33.3217V33.3227V33.3236V33.3246V33.3255V33.3264V33.3274V33.3283V33.3292V33.3302V33.3311V33.332V33.333V33.3339V33.3348V33.3357V33.3367V33.3376V33.3385V33.3394V33.3403V33.3412V33.3422V33.3431V33.344V33.3449V33.3458V33.3467V33.3476V33.3485V33.3494V33.3503V33.3512V33.3521V33.353V33.3539V33.3548V33.3556V33.3565V33.3574V33.3583V33.3592V33.3601V33.3609V33.3618V33.3627V33.3636V33.3644V33.3653V33.3662V33.3671V33.3679V33.3688V33.3697V33.3705V33.3714V33.3722V33.3731V33.374V33.3748V33.3757V33.3765V33.3774V33.3782V33.3791V33.3799V33.3808V33.3816V33.3825V33.3833V33.3842V33.385V33.3858V33.3867V33.3875V33.3883V33.3892V33.39V33.3908V33.3917V33.3925V33.3933V33.3941V33.395V33.3958V33.3966V33.3974V33.3983V33.3991V33.3999V33.4007V33.4015V33.4023V33.4031V33.404V33.4048V33.4056V33.4064V33.4072V33.408V33.4088V33.4096V33.4104V33.4112V33.412V33.4128V33.4136V33.4144V33.4152V33.416V33.4168V33.4176V33.4184V33.4191V33.4199V33.4207V33.4215V33.4223V33.4231V33.4239V33.4246V33.4254V33.4262V33.427V33.4277V33.4285V33.4293V33.4301V33.4308V33.4316V33.4324V33.4332V33.4339V33.4347V33.4355V33.4362V33.437V33.4377V33.4385V33.4393V33.44V33.4408V33.4416V33.4423V33.4431V33.4438V33.4446V33.4453V33.4461V33.4468V33.4476V33.4483V33.4491V33.4498V33.4506V33.4513V33.4521V33.4528V33.4536V33.4543V33.455V33.4558V33.4565V33.4573V33.458V33.4587V33.4595V33.4602V33.4609V33.4617V33.4624V33.4631V33.4639V33.4646V33.4653V33.4661V33.4668V33.4675V33.4682V33.469V33.4697V33.4704V33.4711V33.4719V33.4726V33.4733V33.474V33.4748V33.4755V33.4762V33.4769V33.4776V33.4783V33.4791V33.4798V33.4805V33.4812V33.4819V33.4826V33.4833V33.484V33.4848V33.4855V33.4862V33.4869V33.4876V33.4883V33.489V33.4897V33.4904V33.4911V33.4918V33.4925V33.4932V33.4939V33.4946V33.4953V33.496V33.4967V33.4974V33.4981V33.4988V33.4995V33.5002V33.5009V33.5016V33.5023V33.503V33.5037V33.5044V33.5051V33.5058V33.5065V33.5071V33.5078V33.5085V33.5092V33.5099V33.5106V33.5113V33.512V33.5127V33.5133V33.514V33.5147V33.5154V33.5161V33.5168V33.5175V33.5181V33.5188V33.5195V33.5202V33.5209V33.5215V33.5222V33.5229V33.5236V33.5243V33.5249V33.5256V33.5263V33.527V33.5277V33.5283V33.529V33.5297V33.5304V33.531V33.5317V33.5324V33.5331V33.5337V33.5344V33.5351V33.5358V33.5364V33.5371V33.5378V33.5385V33.5391V33.5398V33.5405V33.5412V33.5418V33.5425V33.5432V33.5438V33.5445V33.5452V33.5458V33.5465V33.5472V33.5479V33.5485V33.5492V33.5499V33.5505V33.5512V33.5519V33.5525V33.5532V33.5539V33.5545V33.5552V33.5559V33.5565V33.5572V33.5579V33.5585V33.5592V33.5599V33.5605V33.5612V33.5619V33.5625V33.5632V33.5639V33.5645V33.5652V33.5659V33.5665V33.5672V33.5679V33.5685V33.5692V33.5699V33.5705V33.5712V33.5719V33.5725V33.5732V33.5739V33.5745V34.0745H14.9259H14.9266H14.9273H14.928H14.9286H14.9293H14.93H14.9307H14.9314H14.932H14.9327H14.9334H14.9341H14.9348H14.9355H14.9362H14.9369H14.9376H14.9383H14.939H14.9398H14.9405H14.9412H14.9419H14.9426H14.9434H14.9441H14.9448H14.9456H14.9463H14.947H14.9478H14.9485H14.9492H14.95H14.9507H14.9515H14.9522H14.953H14.9538H14.9545H14.9553H14.956H14.9568H14.9576H14.9584H14.9591H14.9599H14.9607H14.9615H14.9622H14.963H14.9638H14.9646H14.9654H14.9662H14.967H14.9678H14.9686H14.9694H14.9702H14.971H14.9718H14.9726H14.9734H14.9742H14.975H14.9758H14.9766H14.9775H14.9783H14.9791H14.9799H14.9808H14.9816H14.9824H14.9833H14.9841H14.9849H14.9858H14.9866H14.9874H14.9883H14.9891H14.99H14.9908H14.9917H14.9925H14.9934H14.9942H14.9951H14.996H14.9968H14.9977H14.9985H14.9994H15.0003H15.0011H15.002H15.0029H15.0038H15.0046H15.0055H15.0064H15.0073H15.0081H15.009H15.0099H15.0108H15.0117H15.0126H15.0135H15.0144H15.0152H15.0161H15.017H15.0179H15.0188H15.0197H15.0206H15.0215H15.0224H15.0233H15.0243H15.0252H15.0261H15.027H15.0279H15.0288H15.0297H15.0306H15.0316H15.0325H15.0334H15.0343H15.0352H15.0362H15.0371H15.038H15.0389H15.0399H15.0408H15.0417H15.0427H15.0436H15.0445H15.0455H15.0464H15.0473H15.0483H15.0492H15.0502H15.0511H15.0521H15.053H15.0539H15.0549H15.0558H15.0568H15.0577H15.0587H15.0596H15.0606H15.0615H15.0625H15.0634H15.0644H15.0654H15.0663H15.0673H15.0682H15.0692H15.0702H15.0711H15.0721H15.073H15.074H15.075H15.0759H15.0769H15.0779H15.0788H15.0798H15.0808H15.0818H15.0827H15.0837H15.0847H15.0856H15.0866H15.0876H15.0886H15.0896H15.0905H15.0915H15.0925H15.0935H15.0944H15.0954H15.0964H15.0974H15.0984H15.0993H15.1003H15.1013H15.1023H15.1033H15.1043H15.1053H15.1062H15.1072H15.1082H15.1092H15.1102H15.1112H15.1122H15.1132H15.1141H15.1151H15.1161H15.1171H15.1181H15.1191H15.1201H15.1211H15.1221H15.1231H15.1241H15.1251H15.1261H15.127H15.128H15.129H15.13H15.131H15.132H15.133H15.134H15.135H15.136H15.137H15.138H15.139H15.14H15.141H15.142H15.143H15.144H15.145H15.146H15.147H15.148H15.149H15.15H15.151H15.152H15.153H15.1539H15.1549H15.1559H15.1569H15.1579H15.1589H15.1599H15.1609H15.1619H15.1629H15.1639H15.1649H15.1659H15.1669H15.1679H15.1689H15.1699H15.1709H15.1719H15.1729H15.1739H15.1749H15.1759H15.1769H15.1779H15.1789H15.1799H15.1808H15.1818H15.1828H15.1838H15.1848H15.1858H15.1868H15.1878H15.1888H15.1898H15.1908H15.1918H15.1927H15.1937H15.1947H15.1957H15.1967H15.1977H15.1987H15.1997H15.2006H15.2016H15.2026H15.2036H15.2046H15.2056H15.2066H15.2075H15.2085H15.2095H15.2105H15.2115H15.2124H15.2134H15.2144H15.2154H15.2164H15.2173H15.2183H15.2193H15.2203H15.2212H15.2222H15.2232H15.2241H15.2251H15.2261H15.2271H15.228H15.229H15.23H15.2309H15.2319H15.2329H15.2338H15.2348H15.2357H15.2367H15.2377H15.2386H15.2396H15.2405H15.2415H15.2425H15.2434H15.2444H15.2453H15.2463H15.2472H15.2482H15.2491H15.2501H15.251H15.252H15.2529H15.2539H15.2548H15.2557H15.2567H15.2576H15.2586H15.2595H15.2604H15.2614H15.2623H15.2632H15.2642H15.2651H15.266H15.267H15.2679H15.2688H15.2697H15.2707H15.2716H15.2725H15.2734H15.2743H15.2753H15.2762H15.2771H15.278H15.2789H15.2798H15.2807H15.2816H15.2826H15.2835H15.2844H15.2853H15.2862H15.2871H15.288H15.2889H15.2898H15.2907H15.2916H15.2924H15.2933H15.2942H15.2951H15.296H15.2969H15.2978H15.2986H15.2995H15.3004H15.3013H15.3022H15.303H15.3039H15.3048H15.3056H15.3065H15.3074H15.3082H15.3091H15.31H15.3108H15.3117H15.3125H15.3134H15.3142H15.3151H15.3159H15.3168H15.3176H15.3185H15.3193H15.3201H15.321H15.3218H15.3227H15.3235H15.3243H15.3251H15.326H15.3268H15.3276H15.3284H15.3293H15.3301H15.3309H15.3317H15.3325H15.3333H15.3341H15.3349H15.3357H15.3365H15.3373H15.3381H15.3389H15.3397H15.3405H15.3413H15.3421H15.3429H15.3437H15.3444H15.3452H15.346H15.3468H15.3476H15.3483H15.3491H15.3499H15.3506H15.3514H15.3521H15.3529H15.3537H15.3544H15.3552H15.3559H15.3567H15.3574H15.3581H15.3589H15.3596H15.3604H15.3611H15.3618H15.3625H15.3633H15.364H15.3647H15.3654H15.3661H15.3669H15.3676H15.3683H15.369H15.3697H15.3704H15.3711H15.3718H15.3725H15.3732H15.3739H15.3746H15.3752H15.3759H15.3766H15.3773H15.3779H15.3786H15.3793H15.38C16.3521 34.0745 17.15 34.8724 17.15 35.8456C17.15 36.8188 16.3521 37.6167 15.38 37.6167H15.3752H15.3704H15.3654H15.3603H15.355H15.3497H15.3442H15.3385H15.3328H15.3269H15.3208H15.3147H15.3084H15.302H15.2955H15.2889H15.2821H15.2752H15.2682H15.2611H15.2538H15.2464H15.2389H15.2313H15.2235H15.2157H15.2077H15.1996H15.1914H15.183H15.1746H15.166H15.1573H15.1485H15.1396H15.1306H15.1215H15.1122H15.1029H15.0934H15.0838H15.0741H15.0643H15.0544H15.0443H15.0342H15.0239H15.0136H15.0031H14.9926H14.9819H14.9711H14.9602H14.9492H14.9381H14.9269H14.9157H14.9042H14.8927H14.8811H14.8694H14.8576H14.8457H14.8337H14.8216H14.8094H14.7971H14.7847H14.7722H14.7596H14.747H14.7342H14.7213H14.7083H14.6953H14.6821H14.6689H14.6555H14.6421H14.6286H14.615H14.6013H14.5875H14.5736H14.5596H14.5456H14.5314H14.5172H14.5029H14.4885H14.474H14.4594H14.4448H14.43H14.4152H14.4003H14.3853H14.3703H14.3551H14.3399H14.3246H14.3092H14.2937H14.2782H14.2626H14.2469H14.2311H14.2153H14.1993H14.1833H14.1673H14.1511H14.1349H14.1186H14.1022H14.0858H14.0693H14.0527H14.0361H14.0193H14.0025H13.9857H13.9688H13.9518H13.9347H13.9176H13.9004H13.8831H13.8658H13.8484H13.831H13.8134H13.7959H13.7782H13.7605H13.7428H13.7249H13.7071H13.6891H13.6711H13.653H13.6349H13.6167H13.5985H13.5802H13.5619H13.5435H13.525H13.5065H13.4879H13.4693H13.4506H13.4319H13.4131H13.3943H13.3754H13.3565H13.3375H13.3185H13.2994H13.2803H13.2611H13.2419H13.2227H13.2033H13.184H13.1646H13.1451H13.1256H13.1061H13.0865H13.0669H13.0473H13.0276H13.0078H12.988H12.9682H12.9484H12.9285H12.9085H12.8886H12.8685H12.8485H12.8284H12.8083H12.7881H12.768H12.7477H12.7275H12.7072H12.6869H12.6665H12.6461H12.6257H12.6053H12.5848H12.5643H12.5438H12.5232H12.5026H12.482H12.4614H12.4407H12.42H12.3993H12.3786H12.3578H12.337H12.3162H12.2954H12.2745H12.2536H12.2327H12.2118H12.1909H12.1699H12.149H12.128H12.107H12.0859H12.0649H12.0438H12.0228H12.0017H11.9806H11.9595H11.9383H11.9172H11.896H11.8749H11.8537H11.8325H11.8113H11.7901H11.7689H11.7477H11.7264H11.7052H11.6839H11.6627H11.6414H11.6202H11.5989H11.5776H11.5563H11.5351H11.5138H11.4925H11.4712H11.4499H11.4286H11.4074H11.3861H11.3648H11.3435H11.3222H11.3009H11.2796H11.2584H11.2371H11.2158H11.1946H11.1733H11.1521H11.1308H11.1096H11.0884H11.0672H11.046H11.0248H11.0036H10.9824H10.9612H10.9401H10.9189H10.8978H10.8767H10.8556H10.8345H10.8134H10.7923H10.7713H10.7503H10.7293H10.7083H10.6873H10.6663H10.6454H10.6245H10.6036H10.5827H10.5618H10.541H10.5202H10.4994H10.4786H10.4579H10.4372H10.4165H10.3958H10.3752H10.3545H10.334H10.3134H10.2929H10.2724H10.2519H10.2314H10.211H10.1906H10.1703H10.1499H10.1296H10.1094H10.0892H10.069H10.0488H10.0287H10.0086H9.98854H9.96853H9.94855H9.9286H9.9087H9.88883H9.86901H9.84922H9.82947H9.80976H9.7901H9.77048H9.75089H9.73135H9.71186H9.69241H9.673H9.65364H9.63432H9.61505H9.59582H9.57664H9.55751H9.53843H9.51939H9.50041H9.48147H9.46259H9.44375H9.42497H9.40624H9.38756H9.36893H9.35035H9.33183H9.31337H9.29496H9.2766H9.2583H9.24006H9.22187H9.20374H9.18567H9.16766H9.1497H9.13181H9.11398H9.0962H9.07849H9.06084H9.04325H9.02573H9.00827H8.99087H8.97353H8.95626H8.93906H8.92192H8.90485H8.88785H8.87091H8.85404H8.83724H8.82051H8.80385H8.78726H8.77074H8.75429H8.73791H8.72161H8.70537H8.68921H8.67313H8.65712H8.64118H8.62532H8.60953H8.59383H8.57819H8.56264H8.54716H8.53177H8.51645H8.50121H8.48605H8.47097H8.45598H8.44106H8.42623H8.41148H8.39682H8.38223H8.36773H8.35332H8.33899H8.32475H8.3106H8.29653H8.28255H8.26866H8.25485H8.24114H8.22751H8.21398H8.20053H8.18718H8.17392H8.16075H8.14767H8.13469H8.1218H8.10901H8.09631H8.08371H8.0712H8.05879H8.04647H8.03426H8.02214H8.01012H7.9982H7.98638H7.97465H7.96303H7.95152H7.9401H7.92878H7.91757H7.90646H7.89546H7.88456H7.87376H7.86307H7.85249H7.84201H7.83164H7.82138H7.81123H7.80118H7.79124H7.78142H7.7717H7.7621H7.7526H7.74322H7.73395H7.72479H7.71575H7.70682H7.698H7.6893H7.68072H7.67225H7.6639H7.65566H7.64754H7.63954H7.63166H7.6239H7.61626H7.60874H7.60134H7.59406H7.5869H7.57987H7.57295H7.56616H7.5595H7.55296H7.54654H7.54025H7.53409H7.52805H7.52214H7.51636H7.51071H7.50518H7.49979H7.49452H7.48938H7.48438H7.47951H7.47476H7.47015H7.46568H7.46133H7.45713H7.45305H7.44911H7.44531H7.44164H7.43811H7.43471C6.70155 37.6167 6.13711 37.0642 6.1191 36.3358C6.16677 36.0584 6.31257 35.7658 6.52785 35.5289C6.75252 35.2817 7.02177 35.1282 7.27847 35.0915Z" fill="url(#paint8_linear)" stroke="white"/>
<path d="M56.682 40.4018L57.3975 41.1178L57.5313 40.1144C57.7259 38.6536 58.9944 37.4819 60.5542 37.4819C60.8937 37.4819 61.165 37.4858 61.4163 37.5522V46.5896H61.4045H61.387H61.3695H61.352H61.3344H61.3169H61.2993H61.2817H61.264H61.2464H61.2287H61.211H61.1933H61.1755H61.1578H61.14H61.1222H61.1043H61.0865H61.0686H61.0507H61.0328H61.0149H60.9969H60.979H60.961H60.943H60.925H60.9069H60.8889H60.8708H60.8527H60.8346H60.8164H60.7983H60.7801H60.762H60.7438H60.7256H60.7073H60.6891H60.6708H60.6526H60.6343H60.616H60.5977H60.5793H60.561H60.5426H60.5243H60.5059H60.4875H60.4691H60.4506H60.4322H60.4138H60.3953H60.3768H60.3584H60.3399H60.3214H60.3029H60.2843H60.2658H60.2473H60.2287H60.2101H60.1916H60.173H60.1544H60.1358H60.1172H60.0986H60.08H60.0613H60.0427H60.024H60.0054H59.9867H59.9681H59.9494H59.9307H59.912H59.8933H59.8747H59.856H59.8372H59.8185H59.7998H59.7811H59.7624H59.7437H59.7249H59.7062H59.6875H59.6687H59.65H59.6312H59.6125H59.5938H59.575H59.5563H59.5375H59.5187H59.5H59.4812H59.4625H59.4437H59.425H59.4062H59.3875H59.3687H59.35H59.3312H59.3125H59.2937H59.275H59.2562H59.2375H59.2187H59.2H59.1813H59.1626H59.1438H59.1251H59.1064H59.0877H59.069H59.0503H59.0316H59.0129H58.9942H58.9755H58.9568H58.9381H58.9195H58.9008H58.8822H58.8635H58.8449H58.8263H58.8076H58.789H58.7704H58.7518H58.7332H58.7146H58.6961H58.6775H58.659H58.6404H58.6219H58.6033H58.5848H58.5663H58.5478H58.5294H58.5109H58.4924H58.474H58.4556H58.4371H58.4187H58.4003H58.3819H58.3636H58.3452H58.3269H58.3085H58.2902H58.2719H58.2536H58.2354H58.2171H58.1989H58.1806H58.1624H58.1442H58.126H58.1079H58.0897H58.0716H58.0535H58.0354H58.0173H57.9993H57.9812H57.9632H57.9452H57.9272H57.9092H57.8913H57.8733H57.8554H57.8375H57.8197H57.8018H57.784H57.7662H57.7484H57.7306H57.7129H57.6951H57.6774H57.6598H57.6421H57.6245H57.6069H57.5893H57.5717H57.5542H57.5366H57.5191H57.5017H57.4842H57.4668H57.4494H57.432H57.4147H57.3973H57.38H57.3628H57.3455H57.3283H57.3111H57.294H57.2768H57.2597H57.2426H57.2256H57.2085H57.1915H57.1746H57.1576H57.1407H57.1238H57.107H57.0901H57.0733H57.0566H57.0398H57.0231H57.0065H56.9898H56.9732H56.9566H56.9401H56.9236H56.9071H56.8906H56.8742H56.8578H56.8414H56.8251H56.8088H56.7926H56.7764H56.7602H56.744H56.7279H56.7118H56.6958H56.6798H56.6638H56.6478H56.6319H56.6161H56.6002H56.5844H56.5687H56.5529H56.5373H56.5216H56.506H56.4904H56.4749H56.4594H56.4439H56.4285H56.4132H56.3978H56.3825H56.3673H56.352H56.3369H56.3217H56.3066H56.2916H56.2765H56.2616H56.2466H56.2317H56.2169H56.2021H56.1873H56.1726H56.1579H56.1433H56.1287H56.1142H56.0997H56.0852H56.0708H56.0564H56.0421H56.0278H56.0136H55.9994H55.9852H55.9711H55.9571H55.9431H55.9291H55.9152H55.9013H55.8875H55.8738H55.86H55.8464H55.8327H55.8192H55.8056H55.7922H55.7787H55.7653H55.752H55.7387H55.7255H55.7123H55.6992H55.6861H55.6731H55.6601H55.6472H55.6343H55.6215H55.6087H55.596H55.5833H55.5707H55.5582H55.5457H55.5332H55.5208H55.5085H55.4962H55.4839H55.4718H55.4596H55.4476H55.4356H55.4236H55.4117H55.3998H55.388H55.3763H55.3646H55.353H55.3414H55.3299H55.3185H55.3071H55.2958H55.2845H55.2733H55.2621H55.251H55.24H55.229H55.2181H55.2072H55.1964H55.1857H55.175H55.1644H55.1538H55.1433H55.1329H55.1225H55.1122H55.102H55.0918H55.0817H55.0716H55.0616H55.0517H55.0418H55.032H55.0223H55.0126H55.003H54.9934H54.9839H54.9745H54.9652H54.9559H54.9466H54.9375H54.9284H54.9194H54.9104H54.9015H54.8927H54.884H54.8753H54.8667H54.8581H54.8496H54.8412H54.8329H54.8246H54.8164H54.8082H54.8002H54.7922H54.7843H54.7764H54.7686H54.7609H54.7533H54.7457H54.7382H54.7308H54.7234H54.7161H54.7089H54.7018H54.6947H54.6877H54.6808H54.6739H54.6672H54.6605H54.6538H54.6473H54.6408H54.6344H54.6281H54.6218H54.6157H54.6096H54.6035H54.5976H54.5917H54.5859H54.5802H54.5746H54.569H54.5635H54.5581H54.5528H54.5476H54.5424H54.5373H54.5323H54.5274H54.5225H54.5177H54.5131H54.5084H54.5039H54.4995H54.4951H54.4908H54.4866H54.4825H54.4784H54.4745H54.4706H54.4668H54.4631H54.4594H54.4559H54.4524H54.449H54.4458H54.4425H54.4394H54.4364H54.4334H54.4305H54.4277H54.425C53.3547 46.5896 52.5415 45.6936 52.5415 44.7047C52.5415 43.8257 53.1492 43.1076 54.0692 42.9235L54.6244 42.8124L54.4454 42.2752C54.3263 41.9178 54.2441 41.6562 54.2441 41.4111C54.2441 40.6454 54.834 39.9805 55.6736 39.9805C56.0945 39.9805 56.4249 40.1446 56.682 40.4018Z" fill="url(#paint9_linear)" stroke="white"/>
<path d="M33.9814 54.1435L33.9814 54.1435L33.9887 54.1506C37.0735 57.1135 41.2178 56.3052 44.5817 54.2182C47.8229 52.3189 51.4879 51.6774 53.9535 54.1389C56.0155 56.3122 58.7931 56.4422 61.4164 55.6257V60.9668C58.5307 62.2759 55.6267 62.3475 53.5303 60.2501L53.5304 60.25L53.523 60.2429C50.4326 57.2747 46.1693 58.2081 42.9297 60.1756C39.5842 62.1835 36.0243 62.7219 33.5537 60.2501L33.5537 60.25L33.5464 60.2429C30.456 57.2747 26.1929 58.208 22.9532 60.1755C19.6077 62.1835 16.0477 62.7219 13.5771 60.2501L13.5771 60.25L13.5698 60.2429C10.4809 57.2762 6.22039 58.2071 2.98136 60.1727C2.44257 60.4803 1.90235 60.7348 1.35156 60.9778V55.6714C2.52545 55.389 3.5939 54.839 4.62529 54.22C7.8693 52.3181 11.5384 51.6758 14.0048 54.1435L14.0047 54.1435L14.0121 54.1506C17.0969 57.1135 21.2412 56.3052 24.6051 54.2182C27.8483 52.3177 31.5158 51.6766 33.9814 54.1435Z" fill="url(#paint10_linear)" stroke="white"/>
<path d="M32.8464 60.9578L32.8463 60.9579L32.8537 60.9649C35.9385 63.928 40.0828 63.1197 43.4467 61.0325C46.6899 59.1319 50.3574 58.4908 52.823 60.9578C55.2381 63.3742 58.4742 63.2818 61.5299 62.0478V66.4884C61.1738 66.6311 60.8853 66.8236 60.6368 66.9895L60.6274 66.9958C57.2844 68.9994 53.7286 69.5347 51.2602 67.0649L51.2603 67.0648L51.2529 67.0578C48.1626 64.0893 43.8994 65.0227 40.6597 66.9904C37.3142 68.9984 33.7543 69.5369 31.2836 67.0649L31.2837 67.0648L31.2763 67.0578C28.186 64.0894 23.9229 65.0227 20.6833 66.9903C17.3377 68.9984 13.7777 69.5369 11.307 67.0649L11.3071 67.0648L11.2997 67.0578C8.41049 64.2825 4.49618 64.9177 1.35156 66.6201V62.0694C2.04835 61.7691 2.76477 61.4492 3.48332 61.0384L3.48333 61.0384L3.48811 61.0356C6.73265 59.1326 10.4028 58.4894 12.8698 60.9578L12.8697 60.9579L12.8771 60.9649C15.9619 63.928 20.1061 63.1197 23.47 61.0325C26.7133 59.1319 30.3808 58.4908 32.8464 60.9578Z" fill="url(#paint11_linear)" stroke="white"/>
<path d="M30.5763 67.7718L30.5762 67.7719L30.5836 67.779C33.6684 70.7422 37.8127 69.9338 41.1766 67.8465C44.4198 65.9458 48.0873 65.3047 50.5529 67.7718C53.5177 70.7384 57.6583 69.9419 60.7011 67.7338C60.8353 67.6676 60.9552 67.6133 61.0759 67.5588V71.7341C61.0759 71.9613 61.0024 72.1118 60.9101 72.2041C60.8178 72.2964 60.6677 72.3699 60.4409 72.3699H1.9866C1.7598 72.3699 1.60962 72.2964 1.51736 72.2041C1.42507 72.1118 1.35156 71.9613 1.35156 71.7341V67.7722C4.56287 65.9295 8.16651 65.3372 10.5997 67.7718L10.5996 67.7719L10.607 67.779C13.6918 70.7422 17.8361 69.9338 21.2 67.8465C24.4432 65.9458 28.1107 65.3047 30.5763 67.7718Z" fill="url(#paint12_linear)" stroke="white"/>
<defs>
<linearGradient id="paint0_linear" x1="56.1587" y1="4.32867" x2="44.5359" y2="39.3463" gradientUnits="userSpaceOnUse">
<stop stop-color="#824C71"/>
<stop offset="1" stop-color="#4D3782"/>
</linearGradient>
<linearGradient id="paint1_linear" x1="48.2777" y1="24.5211" x2="66.8296" y2="24.5211" gradientUnits="userSpaceOnUse">
<stop stop-color="#B767EA"/>
<stop offset="1" stop-color="#B879F7"/>
</linearGradient>
<linearGradient id="paint2_linear" x1="43.7781" y1="26.6475" x2="-41.2196" y2="34.8057" gradientUnits="userSpaceOnUse">
<stop stop-color="#824C71"/>
<stop offset="1" stop-color="#4D3782"/>
</linearGradient>
<linearGradient id="paint3_linear" x1="58.9371" y1="53.0787" x2="20.3438" y2="69.6016" gradientUnits="userSpaceOnUse">
<stop stop-color="#FCCB90"/>
<stop offset="1" stop-color="#EB7EBF"/>
</linearGradient>
<linearGradient id="paint4_linear" x1="38.887" y1="34.663" x2="55.2607" y2="34.663" gradientUnits="userSpaceOnUse">
<stop stop-color="#FAF2FC"/>
<stop offset="1" stop-color="#FFEFF6"/>
</linearGradient>
<linearGradient id="paint5_linear" x1="24.7844" y1="45.3733" x2="50.2551" y2="45.3733" gradientUnits="userSpaceOnUse">
<stop stop-color="#FAF2FC"/>
<stop offset="1" stop-color="#FFEFF6"/>
</linearGradient>
<linearGradient id="paint6_linear" x1="18.004" y1="11.8604" x2="33.7926" y2="11.8604" gradientUnits="userSpaceOnUse">
<stop stop-color="#B767EA"/>
<stop offset="1" stop-color="#B879F7"/>
</linearGradient>
<linearGradient id="paint7_linear" x1="55.27" y1="16.7807" x2="40.4264" y2="23.1356" gradientUnits="userSpaceOnUse">
<stop stop-color="#FCCB90"/>
<stop offset="1" stop-color="#EB7EBF"/>
</linearGradient>
<linearGradient id="paint8_linear" x1="5.75815" y1="34.2126" x2="17.7945" y2="34.2126" gradientUnits="userSpaceOnUse">
<stop stop-color="#B767EA"/>
<stop offset="1" stop-color="#B879F7"/>
</linearGradient>
<linearGradient id="paint9_linear" x1="52.0473" y1="42.0253" x2="61.9" y2="42.0253" gradientUnits="userSpaceOnUse">
<stop stop-color="#B767EA"/>
<stop offset="1" stop-color="#B879F7"/>
</linearGradient>
<linearGradient id="paint10_linear" x1="1.14815" y1="57.2136" x2="61.9002" y2="57.2136" gradientUnits="userSpaceOnUse">
<stop stop-color="#C571EE"/>
<stop offset="1" stop-color="#C352D5"/>
</linearGradient>
<linearGradient id="paint11_linear" x1="1.14815" y1="64.0293" x2="61.9002" y2="64.0293" gradientUnits="userSpaceOnUse">
<stop stop-color="#B767EA"/>
<stop offset="1" stop-color="#B879F7"/>
</linearGradient>
<linearGradient id="paint12_linear" x1="1.14815" y1="69.2996" x2="61.9002" y2="69.2996" gradientUnits="userSpaceOnUse">
<stop stop-color="#BF7DF7"/>
<stop offset="1" stop-color="#DF8BFB"/>
</linearGradient>
</defs>
</svg>
