<svg width="74" height="74" viewBox="0 0 74 74" fill="none" xmlns="http://www.w3.org/2000/svg">
<path d="M13.1796 1.45209L7.62577 45.1348C7.50795 45.7018 7.95762 46.2731 8.63776 46.3918L66.6971 53.7616C67.2637 53.8795 67.8347 53.4296 67.9534 52.7491L73.5072 9.0663C73.625 8.49933 73.1753 7.92807 72.4952 7.80932L14.4358 0.439513C13.8683 0.435194 13.2974 0.885127 13.1796 1.45209Z" fill="url(#paint0_linear)"/>
<path d="M50.3483 24.4493C50.2374 24.1078 50.1273 23.6527 50.1299 23.312C50.2529 22.0636 51.3957 21.0502 52.756 21.2877C53.3226 21.4056 53.8884 21.637 54.2254 22.0939C54.695 20.0532 56.6349 18.7051 58.7896 18.9486C61.0579 19.193 62.744 21.3637 62.4997 23.6333C62.498 23.8604 62.3819 24.2002 62.3802 24.4274C62.6072 24.4291 62.8341 24.4308 63.1746 24.4334C65.1024 24.6752 66.565 26.3899 66.3224 28.4324C66.0807 30.3612 64.367 31.8246 62.3257 31.5819C61.0781 31.4589 51.0987 30.2472 50.1915 30.1267C48.7169 30.0019 47.5923 28.6305 47.7179 27.0415C47.9561 25.5669 49.0989 24.5534 50.3483 24.4493Z" fill="url(#paint1_linear)"/>
<path d="M59.9629 73.5853L1.51034 73.1404C0.829341 73.1352 0.378798 72.6775 0.383984 71.9961L0.719383 27.933C0.72457 27.2516 1.18203 26.8008 1.86303 26.806L60.3156 27.2509C60.9966 27.2561 61.4472 27.7138 61.442 28.3952L61.1066 72.4583C61.1022 73.0261 60.5304 73.5896 59.9629 73.5853Z" fill="url(#paint2_linear)"/>
<path d="M29.7292 64.0421C37.8782 64.1041 44.5346 57.5446 44.5966 49.3911C44.6587 41.2375 38.103 34.5774 29.954 34.5154C21.805 34.4534 15.1487 41.0129 15.0866 49.1664C15.0245 57.32 21.5803 63.9801 29.7292 64.0421Z" fill="url(#paint3_linear)"/>
<path d="M49.1423 33.7527C48.2309 34.2 47.4312 34.8753 46.7441 35.665C46.6298 35.7777 46.6289 35.8912 46.5154 35.8904C46.4028 35.776 46.4036 35.6624 46.2901 35.6615C45.6161 34.7479 44.8259 34.1741 43.9213 33.713C42.1122 32.7907 40.1853 32.4354 38.255 32.5343C40.1827 32.7761 41.9944 33.3576 43.3478 34.5035C44.0245 35.0765 44.5868 35.7621 44.9221 36.4461C45.0338 36.674 45.1448 37.0156 45.2574 37.13C45.3683 37.4715 45.5944 37.5868 45.9349 37.5894L46.843 37.5963C47.1834 37.5989 47.4122 37.3735 47.5274 37.1473C47.6426 36.921 47.6444 36.6939 47.8731 36.4685C48.2188 35.7898 48.7915 35.1128 49.4768 34.5502C50.8474 33.425 52.6677 32.8711 54.599 32.6587C52.8973 32.5322 50.8518 32.8573 49.1423 33.7527Z" fill="url(#paint4_linear)"/>
<path d="M40.8953 43.5709C39.5273 44.3554 38.2719 45.2543 37.24 46.6091C37.1256 46.7218 37.0112 46.8345 37.0095 47.0616C36.8969 46.9472 36.7851 46.7192 36.786 46.6057C35.7748 45.2353 34.5341 44.2038 33.1773 43.5121C30.4645 42.0152 27.29 41.5368 24.4508 41.7423C27.3992 42.1054 30.2297 43.0354 32.3733 44.7551C33.3879 45.6713 34.2881 46.7002 34.847 47.84C35.0705 48.296 35.1814 48.6375 35.2923 48.979C35.4024 49.4341 35.8538 49.7782 36.4213 49.7825L37.8968 49.7937C38.3508 49.7972 38.8073 49.46 39.0378 49.0075C39.1539 48.6677 39.27 48.328 39.4996 47.989C40.0758 46.8578 40.9915 45.8428 42.0199 44.9421C44.1894 43.2552 47.0347 42.2549 49.9883 41.9367C46.812 41.6854 43.6305 42.1154 40.8953 43.5709Z" fill="url(#paint5_linear)"/>
<path d="M19.7984 11.7232C19.6875 11.3816 19.5766 11.04 19.6927 10.7002C19.8148 9.56541 20.8424 8.77822 21.863 8.89956C22.4305 8.90388 22.7684 9.24718 23.1063 9.59047C23.5733 7.89044 25.1718 6.65332 26.9861 6.89428C28.9138 7.13609 30.3755 8.96437 30.1338 10.8933C30.1321 11.1204 30.0169 11.3466 30.0151 11.5738C30.2421 11.5755 30.4692 11.5772 30.6961 11.579C32.3969 11.8191 33.5207 13.3041 33.3951 14.8931C33.1551 16.5949 31.671 17.7193 30.0828 17.5936C29.0622 17.4723 20.5566 16.499 19.763 16.3793C18.5153 16.2563 17.5024 15.1128 17.7398 13.7518C17.7485 12.6161 18.6634 11.7145 19.7984 11.7232Z" fill="url(#paint6_linear)"/>
<path d="M43.9023 21.3327C47.0365 21.3565 49.5966 18.8337 49.6205 15.6977C49.6444 12.5617 47.1229 10.0002 43.9887 9.9763C40.8545 9.95245 38.2944 12.4753 38.2705 15.6113C38.2466 18.7473 40.7681 21.3088 43.9023 21.3327Z" fill="url(#paint7_linear)"/>
<path d="M6.68303 34.7921C6.57125 34.5641 6.45947 34.3362 6.46206 33.9955C6.46811 33.2007 7.15429 32.5245 7.94879 32.5306C8.28929 32.5332 8.74245 32.6502 8.96686 32.9925C9.20423 31.6317 10.347 30.6184 11.709 30.6287C13.1845 30.64 14.4235 31.8985 14.4123 33.3747C14.4105 33.6018 14.4097 33.7153 14.4088 33.8289C14.5223 33.8297 14.7493 33.8315 14.8628 33.8323C16.1113 33.8418 17.125 34.8716 17.1155 36.1206C17.106 37.3697 16.0767 38.3839 14.8282 38.3744C14.0337 38.3683 7.45071 38.3182 6.88321 38.3139C5.86171 38.3061 5.07325 37.5052 5.08103 36.4833C5.20058 35.6893 5.88766 34.8996 6.68303 34.7921Z" fill="url(#paint8_linear)"/>
<path d="M60.0098 37.5836C58.1938 37.5698 56.7079 38.9213 56.468 40.6231C56.1301 40.2798 55.6778 40.0492 55.1103 40.0449C53.9753 40.0363 53.1739 40.9388 53.1661 41.9608C53.1635 42.3015 53.2744 42.6431 53.3853 42.9847C52.2486 43.2032 51.4472 44.1056 51.4385 45.2413C51.429 46.4905 52.4419 47.6339 53.8038 47.6443C54.2578 47.6478 58.4574 47.6797 61.2948 47.7013L61.3701 37.8211C60.9178 37.5905 60.4638 37.587 60.0098 37.5836Z" fill="url(#paint9_linear)"/>
<path d="M53.6395 54.3436C50.9363 51.5975 46.9577 52.3622 43.6515 54.2676C40.3444 56.2865 36.4802 56.9385 33.6635 54.1915C30.9602 51.4455 26.9817 52.2101 23.6755 54.1155C20.3684 56.1345 16.5042 56.7864 13.6875 54.0395C10.9842 51.2934 7.00566 52.0581 3.69946 53.9635C2.55927 54.6362 1.41994 55.1953 0.169714 55.4129L0.120446 61.8856C0.91754 61.551 1.71464 61.2163 2.5126 60.7682C5.7053 58.8619 9.68384 58.0973 12.5006 60.8442C15.2039 63.5903 19.068 62.9383 22.4886 60.9202C25.6813 59.014 29.6599 58.2493 32.4766 60.9962C35.1799 63.7423 39.0441 63.0903 42.4646 61.0723C45.6573 59.166 49.6359 58.4014 52.4526 61.1483C54.818 63.5511 58.1112 63.349 61.187 61.8961L61.2354 55.537C58.5036 56.5383 55.6661 56.5167 53.6395 54.3436Z" fill="url(#paint10_linear)"/>
<path d="M52.4525 61.149C49.7493 58.4028 45.7707 59.1675 42.4645 61.073C39.1574 63.0921 35.2932 63.7441 32.4765 60.997C29.7732 58.2507 25.7947 59.0154 22.4885 60.921C19.1814 62.9401 15.3172 63.5921 12.5005 60.8449C9.7972 58.0987 5.81866 58.8634 2.51246 60.7689C1.7145 61.2171 0.917398 61.5518 0.120304 61.8864L0.0770827 67.5646C0.0770827 67.5646 0.0770896 67.5646 0.19059 67.5655C3.38329 65.6591 7.36183 64.8944 10.1786 67.6415C12.8818 70.3877 16.746 69.7357 20.1666 67.7175C23.3593 65.8111 27.3379 65.0464 30.1546 67.7935C32.8579 70.5398 36.7221 69.8878 40.1426 67.8696C43.3353 65.9632 47.3139 65.1985 50.1306 67.9456C52.8339 70.6918 56.6981 70.0398 60.1186 68.0216C60.4609 67.7971 60.8031 67.5725 61.258 67.4624L61.3003 61.8978C58.1111 63.3499 54.8179 63.552 52.4525 61.149Z" fill="url(#paint11_linear)"/>
<path d="M50.1308 67.9456C47.4275 65.1992 43.4489 65.9639 40.1427 67.8696C36.8357 69.8887 32.9715 70.5408 30.1547 67.7935C27.4515 65.0471 23.4729 65.8119 20.1667 67.7175C16.8596 69.7367 12.9955 70.3887 10.1787 67.6415C7.47544 64.8951 3.4969 65.6598 0.190697 67.5654C0.190697 67.5654 0.19069 67.5654 0.0771895 67.5646L0.0443399 71.8802C0.0391531 72.5616 0.489696 73.0194 1.1707 73.0245L59.6233 73.4695C60.3043 73.4747 60.7617 73.0238 60.7669 72.3424L60.8049 67.3454C60.4627 67.5699 60.1214 67.6809 59.6656 67.9046C56.6982 70.0399 52.834 70.692 50.1308 67.9456Z" fill="url(#paint12_linear)"/>
<defs>
<linearGradient id="paint0_linear" x1="55.8631" y1="4.89761" x2="43.9741" y2="39.8257" gradientUnits="userSpaceOnUse">
<stop stop-color="#824C71"/>
<stop offset="1" stop-color="#4D3782"/>
</linearGradient>
<linearGradient id="paint1_linear" x1="47.8283" y1="25.0295" x2="66.3796" y2="25.1707" gradientUnits="userSpaceOnUse">
<stop stop-color="#B767EA"/>
<stop offset="1" stop-color="#B879F7"/>
</linearGradient>
<linearGradient id="paint2_linear" x1="43.3128" y1="27.1215" x2="-41.7446" y2="34.6325" gradientUnits="userSpaceOnUse">
<stop stop-color="#824C71"/>
<stop offset="1" stop-color="#4D3782"/>
</linearGradient>
<linearGradient id="paint3_linear" x1="58.2702" y1="53.6676" x2="19.5522" y2="69.8962" gradientUnits="userSpaceOnUse">
<stop stop-color="#FCCB90"/>
<stop offset="1" stop-color="#EB7EBF"/>
</linearGradient>
<linearGradient id="paint4_linear" x1="38.3608" y1="35.0997" x2="54.7339" y2="35.2243" gradientUnits="userSpaceOnUse">
<stop stop-color="#FAF2FC"/>
<stop offset="1" stop-color="#FFEFF6"/>
</linearGradient>
<linearGradient id="paint5_linear" x1="24.1771" y1="45.7024" x2="49.6471" y2="45.8963" gradientUnits="userSpaceOnUse">
<stop stop-color="#FAF2FC"/>
<stop offset="1" stop-color="#FFEFF6"/>
</linearGradient>
<linearGradient id="paint6_linear" x1="17.6521" y1="12.1387" x2="33.4402" y2="12.2589" gradientUnits="userSpaceOnUse">
<stop stop-color="#B767EA"/>
<stop offset="1" stop-color="#B879F7"/>
</linearGradient>
<linearGradient id="paint7_linear" x1="54.8796" y1="17.3425" x2="39.9881" y2="23.5843" gradientUnits="userSpaceOnUse">
<stop stop-color="#FCCB90"/>
<stop offset="1" stop-color="#EB7EBF"/>
</linearGradient>
<linearGradient id="paint8_linear" x1="5.23641" y1="34.3971" x2="17.2724" y2="34.4888" gradientUnits="userSpaceOnUse">
<stop stop-color="#B767EA"/>
<stop offset="1" stop-color="#B879F7"/>
</linearGradient>
<linearGradient id="paint9_linear" x1="51.4647" y1="42.5621" x2="61.3172" y2="42.6371" gradientUnits="userSpaceOnUse">
<stop stop-color="#B767EA"/>
<stop offset="1" stop-color="#B879F7"/>
</linearGradient>
<linearGradient id="paint10_linear" x1="0.451468" y1="57.3624" x2="61.2017" y2="57.8248" gradientUnits="userSpaceOnUse">
<stop stop-color="#C571EE"/>
<stop offset="1" stop-color="#C352D5"/>
</linearGradient>
<linearGradient id="paint11_linear" x1="0.399455" y1="64.1779" x2="61.1497" y2="64.6403" gradientUnits="userSpaceOnUse">
<stop stop-color="#B767EA"/>
<stop offset="1" stop-color="#B879F7"/>
</linearGradient>
<linearGradient id="paint12_linear" x1="0.359446" y1="69.448" x2="61.1097" y2="69.9104" gradientUnits="userSpaceOnUse">
<stop stop-color="#BF7DF7"/>
<stop offset="1" stop-color="#DF8BFB"/>
</linearGradient>
</defs>
</svg>
