<svg width="82" height="77" viewBox="0 0 82 77" fill="none" xmlns="http://www.w3.org/2000/svg">
<rect x="23.895" y="17.387" width="32.2611" height="44.2438" fill="#CE84F9"/>
<path d="M32.9846 57.3762L32.1616 58.7284C31.7044 59.5547 30.3328 60.1932 28.5039 60.5313C28.5039 60.5313 30.0584 65.677 40.0257 65.677C49.993 65.677 51.5475 60.5313 51.5475 60.5313C49.7187 60.1932 48.347 59.5547 47.8898 58.7284L47.0668 57.3762H32.9846Z" fill="url(#paint0_linear)"/>
<path d="M37.226 3.89864C37.1044 3.91144 36.6695 3.95626 36.2665 3.99468C33.1192 4.29562 29.6394 5.39055 26.7544 6.99771C19.8586 10.8396 15.1378 17.678 14.0119 25.4705C13.7497 27.2826 13.7433 27.8205 13.7625 43.271C13.7817 56.7751 13.7944 58.1838 13.8904 58.7728C14.3702 61.6606 15.3361 63.9465 17.0312 66.194C17.543 66.8663 18.9439 68.2942 19.6667 68.8769C21.5026 70.3624 23.8566 71.5021 26.1339 72.0208C27.5988 72.3473 28.0849 72.3857 31.5072 72.4178C35.243 72.4562 35.2302 72.4562 35.7547 71.9311C36.2665 71.4189 36.2665 71.3997 36.2665 68.1021V65.2655L36.2729 61.9359L36.2537 59.8998L36.2345 57.87L36.0362 57.5178C35.7419 56.9928 35.4988 56.8583 34.2387 56.4933C33.6374 56.3205 32.8186 56.0451 32.4156 55.8851C27.2725 53.7849 24.4579 49.45 24.0485 43.0149C24.0166 42.4514 23.9846 39.6085 23.9846 36.6951V31.3934L33.663 31.3806L43.3349 31.3614L43.6292 31.2269C43.8723 31.1116 44.3584 30.6058 46.3159 28.448L48.7019 25.8099L49.156 26.2901C49.3991 26.5527 49.6614 26.8408 49.7318 26.924C49.8085 27.0009 50.1475 27.385 50.493 27.7628L51.1135 28.4544L53.717 31.3806L55.6552 31.3998L55.6296 37.4955L55.6296 37.5004C55.604 43.9114 55.6039 43.931 55.297 45.6017C54.4398 50.2696 52.0154 53.6056 48.0942 55.4945C47.2178 55.9235 45.9448 56.3845 45.0941 56.5894C44.4416 56.7495 44.2433 56.8391 43.9298 57.1208C43.4181 57.5819 43.3989 57.6651 43.3797 59.9318L43.3605 61.9359L43.3669 65.2655V68.0189C43.3669 69.7541 43.3925 70.8874 43.4373 71.0923C43.5396 71.5597 43.8403 71.9695 44.2625 72.2065L44.6143 72.4049H47.9726C51.4461 72.4049 51.8427 72.3857 53.154 72.1168C53.9473 71.9567 54.9835 71.6558 55.6552 71.3933L56.1925 71.182L56.4676 71.3356C57.2608 71.7774 58.2971 71.4445 58.7385 70.6185C58.924 70.2727 58.9304 69.5044 58.7577 69.1714C58.6937 69.0497 58.1692 68.4863 57.5998 67.9228C56.2053 66.5526 55.7512 65.8482 55.5656 64.7661C55.3737 63.6136 55.9878 62.3137 57.0049 61.7246C57.4271 61.4813 58.0284 61.3341 58.457 61.3789C59.1351 61.4493 60.2225 62.1408 60.8046 62.8772C61.3036 63.4919 61.6362 63.78 61.988 63.8825C62.4102 64.0105 62.5766 64.0105 62.9987 63.8889C63.3506 63.78 63.632 63.5367 64.163 62.8836C64.8218 62.0704 65.7686 61.4557 66.4658 61.3789L66.4019 58.0493L65.9157 58.0813V52.3057V46.5366C65.9157 42.1595 65.9477 40.2744 65.9477 33.961C65.9477 30.5866 65.9221 27.782 65.8837 27.2634C65.4615 21.5391 63.197 16.3078 59.295 12.0113C56.781 9.25159 53.5187 7.00411 49.9812 5.60184C48.5164 5.01917 46.8148 4.53254 45.222 4.2444C43.5716 3.94986 43.0599 3.91144 40.2005 3.89223C38.6908 3.87943 37.3475 3.88583 37.226 3.89864Z" fill="url(#paint1_linear)"/>
<path d="M27.9697 37.1553C27.6115 37.2321 27.3876 37.3538 27.1061 37.6483C26.7927 37.9748 26.6584 38.3205 26.6584 38.8007C26.652 39.2937 26.8311 39.6842 27.2149 40.0236C27.6307 40.3885 27.8098 40.4205 29.441 40.4205H30.8803L30.9442 40.6062C31.053 40.9071 31.5135 41.3617 31.8398 41.4897C32.4475 41.7202 33.0936 41.5986 33.5669 41.1632C33.9635 40.8047 34.1042 40.4653 34.0978 39.8827C34.0915 38.5126 33.068 37.3602 31.6863 37.1553C31.1617 37.0849 28.3535 37.0849 27.9697 37.1553Z" fill="#4F3882"/>
<path d="M47.7486 37.1616C46.6739 37.3217 45.7272 38.1731 45.4521 39.2359C45.1898 40.2282 45.4905 41.0284 46.2709 41.4253C47.0641 41.8351 48.1004 41.5022 48.4842 40.7083L48.6249 40.4202H50.109C51.5739 40.4202 51.5995 40.4202 51.9257 40.2538C52.6613 39.8889 53.0068 39.031 52.7381 38.2371C52.5974 37.8274 52.3095 37.5137 51.8873 37.3024L51.5227 37.1232L49.8275 37.1104C48.8936 37.104 47.9597 37.1296 47.7486 37.1616Z" fill="#4F3882"/>
<path d="M37.3221 48.5798C36.6761 48.8807 36.2603 49.6041 36.3626 50.2699C36.4906 51.147 37.4501 51.9856 38.7294 52.3377C39.7273 52.613 40.9427 52.4786 41.8319 52.0048C43.0217 51.371 43.5398 50.5196 43.2775 49.6169C43.0728 48.9063 42.4204 48.4261 41.6719 48.4261C41.2306 48.4261 40.8979 48.5606 40.5077 48.8871C40.0472 49.2776 39.6314 49.2648 39.126 48.8487C38.9725 48.7206 38.7422 48.5798 38.6143 48.5222C38.2625 48.3749 37.6995 48.4005 37.3221 48.5798Z" fill="#4F3882"/>
<path d="M81.8516 3.60254C81.8516 1.60425 80.1843 0.00561523 78.151 0.00561523C76.7684 0.00561523 75.5891 0.725 74.9385 1.80408C74.2878 0.725 73.1085 0.00561523 71.7259 0.00561523C69.6927 0.00561523 68.0254 1.64421 68.0254 3.60254C68.0254 7.87888 74.9385 11.9954 74.9385 11.9954C74.9385 11.9954 81.8516 7.83892 81.8516 3.60254Z" fill="url(#paint2_linear)"/>
<path d="M12.8342 17.0731C12.8342 15.3822 11.3893 14.0295 9.6271 14.0295C8.42883 14.0295 7.40679 14.6383 6.8429 15.5513C6.27901 14.6383 5.25695 14.0295 4.05868 14.0295C2.29652 14.0295 0.851562 15.4161 0.851562 17.0731C0.851562 20.6916 6.8429 24.1748 6.8429 24.1748C6.8429 24.1748 12.8342 20.6578 12.8342 17.0731Z" fill="url(#paint3_linear)"/>
<path d="M72.8235 63.3774C72.8235 60.1767 70.0462 57.6162 66.6593 57.6162C64.3562 57.6162 62.3918 58.7684 61.308 60.4968C60.2242 58.7684 58.2597 57.6162 55.9566 57.6162C52.5697 57.6162 49.7925 60.2407 49.7925 63.3774C49.7925 70.2267 61.308 76.8201 61.308 76.8201C61.308 76.8201 72.8235 70.1627 72.8235 63.3774Z" fill="url(#paint4_linear)"/>
<defs>
<linearGradient id="paint0_linear" x1="28.4755" y1="61.4917" x2="51.4827" y2="61.4917" gradientUnits="userSpaceOnUse">
<stop stop-color="#C571EE"/>
<stop offset="1" stop-color="#C352D5"/>
</linearGradient>
<linearGradient id="paint1_linear" x1="64.9813" y1="48.7359" x2="12.6901" y2="49.0997" gradientUnits="userSpaceOnUse">
<stop stop-color="#824C71"/>
<stop offset="0.997831" stop-color="#4D3782"/>
</linearGradient>
<linearGradient id="paint2_linear" x1="88.2728" y1="7.69469" x2="71.0741" y2="16.1905" gradientUnits="userSpaceOnUse">
<stop stop-color="#FCCB90"/>
<stop offset="1" stop-color="#EB7EBF"/>
</linearGradient>
<linearGradient id="paint3_linear" x1="18.3993" y1="20.5357" x2="3.63579" y2="28.0054" gradientUnits="userSpaceOnUse">
<stop stop-color="#FCCB90"/>
<stop offset="1" stop-color="#EB7EBF"/>
</linearGradient>
<linearGradient id="paint4_linear" x1="83.5198" y1="69.9317" x2="55.3221" y2="84.4179" gradientUnits="userSpaceOnUse">
<stop stop-color="#FCCB90"/>
<stop offset="1" stop-color="#EB7EBF"/>
</linearGradient>
</defs>
</svg>
