<svg width="73" height="73" viewBox="0 0 73 73" fill="none" xmlns="http://www.w3.org/2000/svg">
<path d="M67.5692 66.2567H65.8816V64.5682C65.8816 64.2305 65.6566 64.0054 65.3191 64.0054C64.9815 64.0054 64.7565 64.2305 64.7565 64.5682V66.2567H63.0689C62.7314 66.2567 62.5063 66.4819 62.5063 66.8196C62.5063 67.1573 62.7314 67.3824 63.0689 67.3824H64.7565V69.0709C64.7565 69.4087 64.9815 69.6338 65.3191 69.6338C65.6566 69.6338 65.8816 69.4087 65.8816 69.0709V67.3824H67.5692C67.9068 67.3824 68.1318 67.1573 68.1318 66.8196C68.1318 66.4819 67.7942 66.2567 67.5692 66.2567Z" fill="url(#paint0_linear)"/>
<path d="M72.0697 34.7362H70.3821V33.0477C70.3821 32.71 70.1571 32.4849 69.8196 32.4849C69.482 32.4849 69.257 32.71 69.257 33.0477V34.7362H67.5694C67.2319 34.7362 67.0068 34.9614 67.0068 35.2991C67.0068 35.6368 67.2319 35.8619 67.5694 35.8619H69.257V37.5504C69.257 37.8881 69.482 38.1133 69.8196 38.1133C70.1571 38.1133 70.3821 37.8881 70.3821 37.5504V35.8619H72.0697C72.4073 35.8619 72.6323 35.6368 72.6323 35.2991C72.6323 34.9614 72.2948 34.7362 72.0697 34.7362Z" fill="url(#paint1_linear)"/>
<path d="M61.944 18.9758H60.2564V17.2874C60.2564 16.9497 60.0313 16.7246 59.6938 16.7246C59.3563 16.7246 59.1313 16.9497 59.1313 17.2874V18.9758H57.4436C57.1061 18.9758 56.8811 19.2009 56.8811 19.5386C56.8811 19.8763 57.1061 20.1014 57.4436 20.1014H59.1313V21.7897C59.1313 22.1274 59.3563 22.3525 59.6938 22.3525C60.0313 22.3525 60.2564 22.1274 60.2564 21.7897V20.1014H61.944C62.2815 20.1014 62.5065 19.8763 62.5065 19.5386C62.5065 19.2009 62.169 18.9758 61.944 18.9758Z" fill="url(#paint2_linear)"/>
<path d="M8.38956 38.7887H6.70193V37.1C6.70193 36.7623 6.47691 36.5371 6.13938 36.5371C5.80185 36.5371 5.57684 36.7623 5.57684 37.1V38.7887H3.8892C3.55168 38.7887 3.32666 39.0138 3.32666 39.3516C3.32666 39.6893 3.55168 39.9145 3.8892 39.9145H5.57684V41.6031C5.57684 41.9409 5.80185 42.166 6.13938 42.166C6.47691 42.166 6.70193 41.9409 6.70193 41.6031V39.9145H8.38956C8.72708 39.9145 8.9521 39.6893 8.9521 39.3516C8.9521 39.1264 8.72708 38.7887 8.38956 38.7887Z" fill="url(#paint3_linear)"/>
<path d="M50.3554 58.0385C49.0053 58.6014 46.9802 56.8003 43.2674 57.2506C43.2674 57.2506 26.2785 53.6484 12.4399 53.4232V64.5675C16.7153 66.2561 38.6545 80.7774 70.9445 56.0123C70.9445 56.0123 71.057 56.0123 71.057 55.8997C71.2821 55.7872 73.4197 54.3238 72.5196 52.5227C70.7195 49.1456 59.9187 54.2112 50.3554 58.0385Z" fill="url(#paint4_linear)"/>
<path d="M49.9054 21.2271C46.6426 23.4786 37.3044 23.7037 33.9292 21.2271C24.2534 25.6175 14.5776 41.6032 14.5776 50.8344C14.5776 62.092 28.9788 63.4429 41.5798 63.4429C54.1807 63.4429 68.5819 62.092 68.5819 50.8344C68.5819 41.7158 59.4687 25.7301 49.9054 21.2271Z" fill="url(#paint5_linear)"/>
<path d="M45.7424 22.6907C42.7047 23.141 40.2295 22.9158 37.7543 22.5781C33.3664 26.9684 29.2036 43.8542 29.2036 52.9725C29.2036 64.2296 29.5411 63.3291 41.5796 63.3291C53.618 63.3291 53.9556 64.2296 53.9556 52.9725C53.9556 43.9667 50.1302 27.1936 45.7424 22.6907Z" fill="url(#paint6_linear)"/>
<path d="M33.3665 6.36719C26.3909 6.59234 25.4909 9.51925 26.616 12.1085C27.6285 14.6977 32.0164 16.2737 33.929 21.2269C37.4168 23.7036 46.6425 23.4784 49.9053 21.2269C49.9053 21.2269 49.9053 18.5252 54.8557 13.9096C56.7683 12.1085 54.9682 7.83065 49.5677 7.83065L33.3665 6.36719Z" fill="url(#paint7_linear)"/>
<path d="M32.0166 3.89096L37.6421 22.6902L45.6302 22.8027L51.1431 6.02979C51.4807 5.01666 51.0306 4.00353 50.2431 3.44068C44.1676 -0.386705 37.192 0.401286 33.7043 1.18928C32.4667 1.30185 31.6791 2.65269 32.0166 3.89096Z" fill="url(#paint8_linear)"/>
<path d="M46.6426 42.2784C46.6426 40.1396 45.405 37.8881 41.9172 37.8881C39.442 37.8881 38.8794 36.4247 38.8794 35.1864C38.8794 33.7229 40.2296 32.4846 41.9172 32.4846C43.1548 32.4846 44.2799 33.1601 44.7299 34.2858C44.9549 34.7361 45.405 34.9612 45.855 34.7361C46.305 34.5109 46.5301 34.0607 46.305 33.6104C45.7425 32.1469 44.3924 31.1338 42.7048 30.9086V29.7829C42.7048 29.3326 42.3672 28.8823 41.8047 28.8823C41.2421 28.8823 40.9046 29.22 40.9046 29.7829V30.9086C38.6544 31.2464 36.9668 33.0475 36.9668 35.1864C36.9668 37.3253 38.2044 39.5767 41.6922 39.5767C44.1674 39.5767 44.7299 41.0402 44.7299 42.2784C44.7299 43.7419 43.3798 44.9802 41.6922 44.9802C40.4546 44.9802 39.3295 44.3048 38.8794 43.179C38.6544 42.7287 38.2044 42.5036 37.7544 42.7288C37.3043 42.9539 37.0793 43.4042 37.3043 43.8545C37.8669 45.3179 39.217 46.3311 40.9046 46.5562V47.6819C40.9046 48.1322 41.2421 48.5825 41.8047 48.5825C42.3672 48.5825 42.7048 48.2448 42.7048 47.6819V46.5562C44.9549 46.2185 46.6426 44.4173 46.6426 42.2784Z" fill="#FEF0F7"/>
<path d="M22.2283 41.603C28.1935 41.603 33.0292 36.7645 33.0292 30.7959C33.0292 24.8273 28.1935 19.9888 22.2283 19.9888C16.2632 19.9888 11.4275 24.8273 11.4275 30.7959C11.4275 36.7645 16.2632 41.603 22.2283 41.603Z" fill="url(#paint9_linear)"/>
<path d="M22.2282 35.8623C25.0243 35.8623 27.2911 33.5941 27.2911 30.7961C27.2911 27.9982 25.0243 25.73 22.2282 25.73C19.432 25.73 17.1653 27.9982 17.1653 30.7961C17.1653 33.5941 19.432 35.8623 22.2282 35.8623Z" fill="url(#paint10_linear)"/>
<path d="M35.2793 30.2328H33.5917C33.2542 24.379 28.6413 19.7635 22.7909 19.4258V17.7372C22.7909 17.3995 22.5658 17.1743 22.2283 17.1743C21.8908 17.1743 21.6658 17.3995 21.6658 17.7372V19.4258C15.8153 19.7635 11.2024 24.379 10.8649 30.2328H9.17729C8.83976 30.2328 8.61475 30.4579 8.61475 30.7956C8.61475 31.1334 8.83976 31.3585 9.17729 31.3585H10.8649C11.2024 37.2123 15.8153 41.8278 21.6658 42.1655V43.8541C21.6658 44.1918 21.8908 44.417 22.2283 44.417C22.5658 44.417 22.7909 44.1918 22.7909 43.8541V42.1655C28.6413 41.8278 33.2542 37.2123 33.5917 31.3585H35.2793C35.6169 31.3585 35.8419 31.1334 35.8419 30.7956C35.8419 30.4579 35.5043 30.2328 35.2793 30.2328ZM22.7909 41.0398V39.3512C22.7909 39.0135 22.5658 38.7883 22.2283 38.7883C21.8908 38.7883 21.6658 39.0135 21.6658 39.3512V41.0398C16.4904 40.7021 12.3275 36.5369 11.99 31.3585H13.6776C14.0152 31.3585 14.2402 31.1334 14.2402 30.7956C14.2402 30.4579 14.0152 30.2328 13.6776 30.2328H11.99C12.3275 25.0544 16.4904 20.8892 21.6658 20.5515V22.2401C21.6658 22.5778 21.8908 22.803 22.2283 22.803C22.5658 22.803 22.7909 22.5778 22.7909 22.2401V20.5515C27.9663 20.8892 32.1291 25.0544 32.4666 30.2328H30.779C30.4415 30.2328 30.2164 30.4579 30.2164 30.7956C30.2164 31.1334 30.4415 31.3585 30.779 31.3585H32.4666C32.1291 36.6494 27.9663 40.8147 22.7909 41.0398Z" fill="url(#paint11_linear)"/>
<path d="M27.8537 2.08984H13.7901C13.4526 2.08984 13.2275 1.86475 13.2275 1.5271C13.2275 1.18945 13.4526 0.964355 13.7901 0.964355H27.8537C28.1912 0.964355 28.4162 1.18945 28.4162 1.5271C28.4162 1.86475 28.0787 2.08984 27.8537 2.08984Z" fill="url(#paint12_linear)"/>
<path d="M10.4148 2.08984H1.97661C1.63908 2.08984 1.41406 1.86475 1.41406 1.5271C1.41406 1.18945 1.63908 0.964355 1.97661 0.964355H10.4148C10.7523 0.964355 10.9773 1.18945 10.9773 1.5271C10.9773 1.86475 10.6398 2.08984 10.4148 2.08984Z" fill="url(#paint13_linear)"/>
<path d="M22.2283 7.71777H16.0403C15.7028 7.71777 15.4778 7.49268 15.4778 7.15503C15.4778 6.81738 15.7028 6.59229 16.0403 6.59229H22.2283C22.5658 6.59229 22.7908 6.81738 22.7908 7.15503C22.7908 7.49268 22.4533 7.71777 22.2283 7.71777Z" fill="url(#paint14_linear)"/>
<path d="M12.6649 7.71777H1.97661C1.63908 7.71777 1.41406 7.49268 1.41406 7.15503C1.41406 6.81738 1.63908 6.59229 1.97661 6.59229H12.6649C13.0025 6.59229 13.2275 6.81738 13.2275 7.15503C13.2275 7.49268 12.89 7.71777 12.6649 7.71777Z" fill="url(#paint15_linear)"/>
<path d="M22.2281 13.3467H11.2022C10.8647 13.3467 10.6396 13.1214 10.6396 12.7834C10.6396 12.4455 10.8647 12.2202 11.2022 12.2202H22.2281C22.5656 12.2202 22.7906 12.4455 22.7906 12.7834C22.7906 13.1214 22.4531 13.3467 22.2281 13.3467Z" fill="url(#paint16_linear)"/>
<path d="M7.82703 13.3467H1.86406C1.52653 13.3467 1.30151 13.1214 1.30151 12.7834C1.30151 12.4455 1.52653 12.2202 1.86406 12.2202H7.82703C8.16455 12.2202 8.38957 12.4455 8.38957 12.7834C8.38957 13.1214 8.16455 13.3467 7.82703 13.3467Z" fill="url(#paint17_linear)"/>
<path d="M13.2275 18.9766H1.97661C1.63908 18.9766 1.41406 18.7513 1.41406 18.4133C1.41406 18.0754 1.63908 17.8501 1.97661 17.8501H13.2275C13.565 17.8501 13.79 18.0754 13.79 18.4133C13.79 18.7513 13.4525 18.9766 13.2275 18.9766Z" fill="url(#paint18_linear)"/>
<path d="M54.8558 58.8265C53.6182 59.502 52.3806 60.1774 51.0305 60.8529C47.8803 62.4289 44.505 63.1043 40.6797 63.1043C37.7545 63.1043 34.6042 62.654 31.229 61.7535C30.5539 61.5283 30.2164 60.9654 30.3289 60.29C30.5539 59.6145 31.229 59.2768 31.7915 59.3894C38.9921 61.3032 44.73 61.078 49.7929 58.6014C52.0431 57.4756 52.0431 57.0253 52.1556 56.2373C52.2681 54.8864 52.1556 53.8732 51.4805 53.1978C50.5805 52.1846 49.0053 52.2972 49.0053 52.2972C37.3044 52.5223 35.1668 51.284 32.6916 49.8206C30.4414 48.4697 25.041 46.8936 11.2024 46.6685V66.8193C15.4777 68.5079 37.3044 82.9175 69.707 58.2636C69.707 58.2636 72.1822 56.575 71.2821 54.8864C69.5945 51.3966 63.969 54.0984 54.8558 58.8265Z" fill="url(#paint19_linear)"/>
<path d="M10.9774 45.6548H1.97665C1.3016 45.6548 0.851562 46.1051 0.851562 46.7805V67.0442C0.851562 67.7196 1.3016 68.1699 1.97665 68.1699H10.9774C11.6524 68.1699 12.1024 67.7196 12.1024 67.0442V46.7805C12.1024 46.1051 11.5399 45.6548 10.9774 45.6548Z" fill="url(#paint20_linear)"/>
<path d="M6.47694 64.7915C7.40899 64.7915 8.16457 64.0358 8.16457 63.1035C8.16457 62.1713 7.40899 61.4155 6.47694 61.4155C5.54488 61.4155 4.78931 62.1713 4.78931 63.1035C4.78931 64.0358 5.54488 64.7915 6.47694 64.7915Z" fill="url(#paint21_linear)"/>
<path d="M41.2422 23.8164C37.8669 23.8164 34.6041 23.2535 32.804 22.0151C32.4665 21.7899 32.354 21.227 32.579 20.8893C32.804 20.5515 33.3665 20.4389 33.7041 20.6641C36.8543 22.9157 47.0926 22.4654 49.9053 20.4389C50.2429 20.2138 50.8054 20.2137 51.0304 20.6641C51.2554 21.1144 51.2554 21.5647 50.8054 21.7899C49.1178 23.0283 45.18 23.8164 41.2422 23.8164Z" fill="#73406E"/>
<defs>
<linearGradient id="paint0_linear" x1="68.2162" y1="66.8196" x2="63.532" y2="68.8251" gradientUnits="userSpaceOnUse">
<stop stop-color="#F3749C"/>
<stop offset="1" stop-color="#EB82A9"/>
</linearGradient>
<linearGradient id="paint1_linear" x1="72.7167" y1="35.2991" x2="68.0325" y2="37.3046" gradientUnits="userSpaceOnUse">
<stop stop-color="#F3749C"/>
<stop offset="1" stop-color="#EB82A9"/>
</linearGradient>
<linearGradient id="paint2_linear" x1="62.591" y1="19.5386" x2="57.9069" y2="21.5442" gradientUnits="userSpaceOnUse">
<stop stop-color="#F3749C"/>
<stop offset="1" stop-color="#EB82A9"/>
</linearGradient>
<linearGradient id="paint3_linear" x1="9.03656" y1="39.3516" x2="4.3522" y2="41.357" gradientUnits="userSpaceOnUse">
<stop stop-color="#F3749C"/>
<stop offset="1" stop-color="#EB82A9"/>
</linearGradient>
<linearGradient id="paint4_linear" x1="12.4667" y1="60.8675" x2="72.8226" y2="60.8675" gradientUnits="userSpaceOnUse">
<stop stop-color="#431863"/>
<stop offset="0.2464" stop-color="#5E2F69"/>
<stop offset="0.4952" stop-color="#723F6D"/>
<stop offset="0.7461" stop-color="#7E4970"/>
<stop offset="1" stop-color="#824C71"/>
</linearGradient>
<linearGradient id="paint5_linear" x1="14.5467" y1="42.3583" x2="68.5509" y2="42.3583" gradientUnits="userSpaceOnUse">
<stop stop-color="#C571EE"/>
<stop offset="1" stop-color="#C352D5"/>
</linearGradient>
<linearGradient id="paint6_linear" x1="29.1727" y1="43.0712" x2="53.9246" y2="43.0712" gradientUnits="userSpaceOnUse">
<stop stop-color="#BF7DF7"/>
<stop offset="1" stop-color="#DF8BFB"/>
</linearGradient>
<linearGradient id="paint7_linear" x1="26.1929" y1="14.7124" x2="55.5859" y2="14.7124" gradientUnits="userSpaceOnUse">
<stop stop-color="#C571EE"/>
<stop offset="1" stop-color="#C352D5"/>
</linearGradient>
<linearGradient id="paint8_linear" x1="31.9394" y1="11.5727" x2="51.3176" y2="11.5727" gradientUnits="userSpaceOnUse">
<stop stop-color="#BF7DF7"/>
<stop offset="1" stop-color="#DF8BFB"/>
</linearGradient>
<linearGradient id="paint9_linear" x1="43.0616" y1="33.8501" x2="14.8116" y2="45.9445" gradientUnits="userSpaceOnUse">
<stop stop-color="#FCCB90"/>
<stop offset="1" stop-color="#EB7EBF"/>
</linearGradient>
<linearGradient id="paint10_linear" x1="27.0059" y1="29.2327" x2="16.9609" y2="29.1419" gradientUnits="userSpaceOnUse">
<stop stop-color="#824C71"/>
<stop offset="0.997831" stop-color="#4D3782"/>
</linearGradient>
<linearGradient id="paint11_linear" x1="35.075" y1="26.592" x2="8.06513" y2="26.3478" gradientUnits="userSpaceOnUse">
<stop stop-color="#824C71"/>
<stop offset="0.997831" stop-color="#4D3782"/>
</linearGradient>
<linearGradient id="paint12_linear" x1="28.6443" y1="1.5271" x2="28.2094" y2="4.0407" gradientUnits="userSpaceOnUse">
<stop stop-color="#F3749C"/>
<stop offset="1" stop-color="#EB82A9"/>
</linearGradient>
<linearGradient id="paint13_linear" x1="11.1209" y1="1.5271" x2="10.4596" y2="3.93423" gradientUnits="userSpaceOnUse">
<stop stop-color="#F3749C"/>
<stop offset="1" stop-color="#EB82A9"/>
</linearGradient>
<linearGradient id="paint14_linear" x1="22.9006" y1="7.15503" x2="22.0769" y2="9.44789" gradientUnits="userSpaceOnUse">
<stop stop-color="#F3749C"/>
<stop offset="1" stop-color="#EB82A9"/>
</linearGradient>
<linearGradient id="paint15_linear" x1="13.4048" y1="7.15503" x2="12.8562" y2="9.62183" gradientUnits="userSpaceOnUse">
<stop stop-color="#F3749C"/>
<stop offset="1" stop-color="#EB82A9"/>
</linearGradient>
<linearGradient id="paint16_linear" x1="22.973" y1="12.7834" x2="22.4374" y2="15.2586" gradientUnits="userSpaceOnUse">
<stop stop-color="#F3749C"/>
<stop offset="1" stop-color="#EB82A9"/>
</linearGradient>
<linearGradient id="paint17_linear" x1="8.49598" y1="12.7834" x2="7.65101" y2="15.061" gradientUnits="userSpaceOnUse">
<stop stop-color="#F3749C"/>
<stop offset="1" stop-color="#EB82A9"/>
</linearGradient>
<linearGradient id="paint18_linear" x1="13.9758" y1="18.4133" x2="13.4491" y2="20.8925" gradientUnits="userSpaceOnUse">
<stop stop-color="#F3749C"/>
<stop offset="1" stop-color="#EB82A9"/>
</linearGradient>
<linearGradient id="paint19_linear" x1="11.3417" y1="59.5571" x2="71.6735" y2="59.5571" gradientUnits="userSpaceOnUse">
<stop stop-color="#704078"/>
<stop offset="0.3352" stop-color="#85507C"/>
<stop offset="0.7229" stop-color="#975E80"/>
<stop offset="1" stop-color="#9E6381"/>
</linearGradient>
<linearGradient id="paint20_linear" x1="17.3277" y1="60.0938" x2="0.680103" y2="63.6574" gradientUnits="userSpaceOnUse">
<stop stop-color="#FCCB90"/>
<stop offset="1" stop-color="#EB7EBF"/>
</linearGradient>
<linearGradient id="paint21_linear" x1="4.75477" y1="63.0776" x2="8.13003" y2="63.0776" gradientUnits="userSpaceOnUse">
<stop stop-color="#FAF2FC"/>
<stop offset="1" stop-color="#FFEFF6"/>
</linearGradient>
</defs>
</svg>
