<svg width="66" height="77" viewBox="0 0 66 77" fill="none" xmlns="http://www.w3.org/2000/svg">
<path d="M32.9561 76.9799C15.0068 76.9799 0.456055 62.4206 0.456055 44.4608C0.456055 26.501 15.0068 11.9418 32.9561 11.9418C50.9053 11.9418 65.4561 26.501 65.4561 44.4608C65.4561 62.4206 50.9053 76.9799 32.9561 76.9799Z" fill="url(#paint0_linear)"/>
<path d="M34.9561 74.9784C49.5916 74.9784 61.4561 63.1071 61.4561 48.463C61.4561 33.819 49.5916 21.9476 34.9561 21.9476C20.3205 21.9476 8.45605 33.819 8.45605 48.463C8.45605 63.1071 20.3205 74.9784 34.9561 74.9784Z" fill="url(#paint1_linear)"/>
<path d="M55.6145 55.6624L54.9198 54.9683C56.9029 54.2943 58.6031 52.8269 59.4666 50.7381C61.0676 46.8782 59.2324 42.4502 55.3719 40.8491C54.0057 40.2835 52.6266 39.7956 51.239 39.3649C52.6266 38.9342 54.0057 38.4463 55.3719 37.88C59.2317 36.2796 61.0669 31.8515 59.4666 27.9911C58.236 25.0161 55.3213 23.2652 52.2847 23.3392C52.3586 20.3006 50.6084 17.3886 47.6328 16.1573C43.773 14.5563 39.3449 16.3915 37.7439 20.252C37.1782 21.6182 36.6904 22.9973 36.2596 24.3849C35.8289 22.9973 35.3411 21.6188 34.7747 20.252C33.1744 16.3922 28.7463 14.557 24.8858 16.1573C21.9108 17.3879 20.16 20.3006 20.2339 23.3392C17.1947 23.2652 14.2833 25.0155 13.0521 27.9911C11.4517 31.8515 13.2863 36.2796 17.1474 37.88C18.5129 38.4463 19.894 38.9342 21.2796 39.3649C19.894 39.7956 18.5129 40.2835 17.1474 40.8491C13.2869 42.4502 11.4524 46.8782 13.0521 50.7381C14.2833 53.7137 17.198 55.4639 20.2339 55.39C20.16 58.4272 21.9108 61.3412 24.8858 62.5718C28.7463 64.1728 33.1744 62.3376 34.7747 58.4772C35.3411 57.111 35.8289 55.7299 36.2596 54.3442C36.6904 55.7318 37.1782 57.111 37.7439 58.4772C39.3449 62.337 43.773 64.1722 47.6328 62.5718C49.7216 61.7084 51.1884 60.0081 51.863 58.025L52.5571 58.7198C54.5967 60.76 55.7203 63.4761 55.7203 66.3648V67.4754H60.0445V66.3648C60.0445 62.3208 58.4714 58.5193 55.6145 55.6624Z" fill="url(#paint2_linear)"/>
<path d="M37.5177 9.31104C37.5177 6.80072 35.465 4.74683 32.9561 4.74683C35.465 4.74683 37.5177 2.69293 37.5177 0.182617C37.5177 2.69293 39.5704 4.74683 42.0793 4.74683C39.5704 4.74683 37.5177 6.80072 37.5177 9.31104Z" fill="url(#paint3_linear)"/>
<path d="M55.4835 14.8306C55.4835 12.3201 53.4308 10.2661 50.9219 10.2661C53.4308 10.2661 55.4835 8.21211 55.4835 5.70166C55.4835 8.21211 57.5362 10.2661 60.0451 10.2661C57.5362 10.2661 55.4835 12.3201 55.4835 14.8306Z" fill="url(#paint4_linear)"/>
<defs>
<linearGradient id="paint0_linear" x1="-29.7318" y1="53.651" x2="55.2734" y2="90.0432" gradientUnits="userSpaceOnUse">
<stop stop-color="#FCCB90"/>
<stop offset="1" stop-color="#EB7EBF"/>
</linearGradient>
<linearGradient id="paint1_linear" x1="68.479" y1="52.498" x2="13.216" y2="76.7939" gradientUnits="userSpaceOnUse">
<stop stop-color="#C662EF"/>
<stop offset="1" stop-color="#F57597"/>
</linearGradient>
<linearGradient id="paint2_linear" x1="58.7055" y1="33.5191" x2="11.5127" y2="33.1277" gradientUnits="userSpaceOnUse">
<stop stop-color="#824C71"/>
<stop offset="0.997831" stop-color="#4D3782"/>
</linearGradient>
<linearGradient id="paint3_linear" x1="32.993" y1="4.71317" x2="42.1163" y2="4.71317" gradientUnits="userSpaceOnUse">
<stop stop-color="#B28EA5"/>
<stop offset="1" stop-color="#D0BBC9"/>
</linearGradient>
<linearGradient id="paint4_linear" x1="50.9611" y1="10.2336" x2="60.0843" y2="10.2336" gradientUnits="userSpaceOnUse">
<stop stop-color="#B28EA5"/>
<stop offset="1" stop-color="#D0BBC9"/>
</linearGradient>
</defs>
</svg>
