<svg width="17" height="17" viewBox="0 0 17 17" fill="none" xmlns="http://www.w3.org/2000/svg">
<path fill-rule="evenodd" clip-rule="evenodd" d="M8.85156 16.6152C13.2698 16.6152 16.8516 13.0335 16.8516 8.61523C16.8516 4.19696 13.2698 0.615234 8.85156 0.615234C4.43328 0.615234 0.851562 4.19696 0.851562 8.61523C0.851562 13.0335 4.43328 16.6152 8.85156 16.6152ZM13.5998 7.27867C13.9662 6.86543 13.9282 6.2334 13.515 5.867C13.1018 5.5006 12.4697 5.53856 12.1033 5.9518L8.39926 10.1293L6.58262 8.18292C6.20578 7.77917 5.57299 7.75735 5.16924 8.13418C4.76549 8.51101 4.74367 9.1438 5.12051 9.54755L7.68717 12.2976C7.87933 12.5034 8.14939 12.6187 8.43099 12.6152C8.71259 12.6116 8.97962 12.4894 9.16646 12.2787L13.5998 7.27867Z" fill="url(#paint0_linear)"/>
<defs>
<linearGradient id="paint0_linear" x1="24.2824" y1="10.8761" x2="3.36186" y2="19.8378" gradientUnits="userSpaceOnUse">
<stop stop-color="#FCCB90"/>
<stop offset="1" stop-color="#EB7EBF"/>
</linearGradient>
</defs>
</svg>
