<svg width="30" height="29" viewBox="0 0 30 29" fill="none" xmlns="http://www.w3.org/2000/svg">
<circle cx="15.3516" cy="14.0078" r="13.5" fill="#323232"/>
<path d="M20.128 20.8481L22.4619 9.47591C22.5572 8.99455 22.5016 8.64994 22.2952 8.44207C22.0888 8.23421 21.8163 8.19592 21.4775 8.3272L7.75961 13.7918C7.45265 13.9121 7.2436 14.0489 7.13246 14.202C7.02132 14.3552 7.00809 14.5001 7.09277 14.6369C7.17745 14.7736 7.3468 14.8803 7.60084 14.9569L11.1097 16.0892L19.2547 10.7887C19.477 10.6356 19.6464 10.6027 19.7628 10.6903C19.8369 10.745 19.8157 10.827 19.6993 10.9364L13.1102 17.0902L12.8562 20.8317C13.0997 20.8317 13.3378 20.7114 13.5707 20.4707L15.2854 18.764L18.8419 21.4717C19.5193 21.8655 19.948 21.6577 20.128 20.8481Z" fill="#F4F4F4"/>
<path d="M28.7274 14.4458C28.7274 21.8725 22.7105 27.8921 15.2895 27.8921C7.86847 27.8921 1.85156 21.8725 1.85156 14.4458C1.85156 7.01907 7.86847 0.999512 15.2895 0.999512C22.7105 0.999512 28.7274 7.01907 28.7274 14.4458Z" stroke="#323232" stroke-width="2"/>
</svg>
