<svg width="29" height="29" viewBox="0 0 29 29" fill="none" xmlns="http://www.w3.org/2000/svg">
<path d="M26.8515 14.0803C26.8515 20.7478 21.4277 26.1528 14.7369 26.1528C11.2036 25.1468 6.32782 26.8198 4.13669 24.6438C2.62231 22.1287 2.62231 17.4216 2.62231 14.0803C2.62231 7.41286 8.04621 2.00781 14.7369 2.00781C21.4277 2.00781 26.8515 7.41286 26.8515 14.0803Z" fill="#323232"/>
<path d="M14.8516 2.3459C8.49031 2.3459 3.31906 7.52022 3.31031 13.8852C3.31031 16.0653 3.92281 18.1928 5.07781 20.0226L5.34906 20.4604L4.18531 24.7154L8.55156 23.5685L8.97156 23.8224C10.7391 24.873 12.7691 25.4333 14.8428 25.4333H14.8516C21.2041 25.4333 26.5153 20.259 26.5153 13.894C26.5153 10.8122 25.1853 7.9142 23.0066 5.73416C20.8191 3.54536 17.9316 2.3459 14.8516 2.3459ZM14.8428 27.771C12.5153 27.771 10.2316 27.1844 8.21031 26.0812L0.851562 28.0161L2.82031 20.8193C1.60406 18.7181 0.965313 16.3279 0.965313 13.8765C0.974063 6.22445 7.19531 -0.000488281 14.8428 -0.000488281C18.5528 -0.000488281 22.0353 1.44412 24.6603 4.07067C27.2766 6.69723 28.8516 10.1818 28.8516 13.894C28.8516 21.546 22.4903 27.771 14.8428 27.771Z" fill="#323232"/>
<path d="M19.3491 20.487C20.0141 20.3907 21.3966 19.6552 21.6853 18.841C21.9741 18.0355 21.9741 17.335 21.8953 17.1687C21.8078 17.0286 21.5803 16.941 21.2303 16.7659C20.8803 16.5908 19.1741 15.7503 18.8591 15.6365C18.5441 15.5227 18.3078 15.4614 18.0803 15.8116C17.8528 16.1531 17.1878 16.941 16.9866 17.1687C16.7853 17.4051 16.5841 17.4313 16.2341 17.2562C14.1953 16.2319 12.8566 15.4351 11.5178 13.1325C11.1591 12.5196 11.8678 12.5721 12.5328 11.2413C12.6553 11.0137 12.5941 10.8123 12.5066 10.6372C12.4191 10.4621 11.7278 8.75478 11.4391 8.06311C11.1591 7.38894 10.8703 7.4765 10.6603 7.46774C10.4591 7.45898 10.2228 7.45898 9.99531 7.45898C9.75906 7.45898 9.38281 7.54654 9.06781 7.89675C8.74406 8.24697 7.85156 9.08748 7.85156 10.7948C7.85156 12.5021 9.09406 14.1568 9.26906 14.3845C9.44406 14.6121 11.7191 18.1143 15.1928 19.6202C17.3891 20.5658 18.2466 20.6533 19.3491 20.487Z" fill="white"/>
</svg>
