<svg width="196" height="85" viewBox="0 0 196 85" fill="none" xmlns="http://www.w3.org/2000/svg">
<circle cx="42.8516" cy="42.6152" r="42" fill="url(#paint0_radial)"/>
<path d="M24.4492 26.9609H15.0273V29.0791H16.3193V38.6152H18.4375V29.0791H24.4492V26.9609ZM30.1094 26.9521C29.582 26.9609 29.0723 27.0312 28.5889 27.1631C28.0967 27.2949 27.6309 27.4883 27.2002 27.7256C26.7695 27.9629 26.374 28.2529 26.0137 28.5869C25.6533 28.9297 25.3457 29.2988 25.0908 29.7119C24.8359 30.125 24.6338 30.5732 24.4932 31.0479C24.3438 31.5312 24.2734 32.0322 24.2734 32.5508V38.6152H26.3916V32.9111C26.5146 32.876 26.6553 32.8496 26.8135 32.8232C26.9629 32.8057 27.1211 32.7969 27.2705 32.7969C27.7715 32.7969 28.2549 32.8936 28.7119 33.0869C29.1602 33.2891 29.5645 33.5527 29.9072 33.8955C30.25 34.2383 30.5225 34.6338 30.7246 35.0908C30.9268 35.5479 31.0234 36.0312 31.0234 36.5498V38.6152H33.1768V29.0439H34.4775V26.9521H30.1094ZM31.0234 32.1025C29.916 31.1973 28.5889 30.7402 27.0508 30.7402C27.2178 30.4854 27.4111 30.2568 27.6309 30.0459C27.8506 29.8438 28.0879 29.6592 28.3604 29.5098C28.624 29.3604 28.9141 29.2461 29.2217 29.167C29.5293 29.0879 29.8457 29.0439 30.1797 29.0439H31.0234V32.1025ZM40.6123 26.9609C40.0762 26.9697 39.5664 27.04 39.083 27.1807C38.5908 27.3301 38.1338 27.5234 37.7031 27.7783C37.2725 28.0332 36.8857 28.3408 36.5342 28.6924C36.1826 29.0527 35.8838 29.4395 35.6289 29.8701C35.374 30.3008 35.1807 30.7666 35.0488 31.2588C34.9082 31.7598 34.8379 32.2695 34.8379 32.8057V38.6152H36.9473V32.6123C36.9473 32.1201 37.0527 31.6543 37.2549 31.2236C37.457 30.793 37.7295 30.4238 38.0723 30.0986C38.415 29.7822 38.8105 29.5273 39.2588 29.3428C39.707 29.1582 40.1904 29.0615 40.6914 29.0615H41.5352V38.6152H43.6182V29.0615H44.9189V26.9609H40.6123ZM52.1523 26.917V28.6396C51.6338 28.8594 51.1504 29.123 50.6934 29.4219C50.2363 29.7295 49.8145 30.0459 49.4277 30.3887C49.0322 30.7314 48.6807 31.083 48.373 31.4434C48.0566 31.8037 47.7842 32.1553 47.5645 32.4893V26.917H45.4551V38.6152H47.5645C47.5645 38.6152 47.6084 38.1143 47.7051 37.5781C47.793 37.042 47.9248 36.5146 48.1006 35.9961C48.2764 35.4775 48.4961 34.9766 48.751 34.4844C49.0059 33.9922 49.3047 33.5352 49.6475 33.1045C49.9902 32.6738 50.3682 32.2871 50.79 31.9268C51.2031 31.5752 51.6602 31.2764 52.1523 31.0303V38.6152H54.2529V26.917H52.1523ZM64.7119 30.7227H63.9121V26.9521H61.8115V30.7227H60.959C60.2471 30.7227 59.5703 30.8457 58.9463 31.083C58.3135 31.3203 57.7422 31.6455 57.2412 32.0586V26.9521H55.1406V38.6152H57.2412V36.3564C57.2412 35.8643 57.3818 35.3984 57.584 34.9678C57.7861 34.5371 58.0586 34.1592 58.4014 33.834C58.7354 33.5176 59.1221 33.2627 59.5703 33.0781C60.0098 32.8936 60.4844 32.7969 60.9941 32.7969H61.8115V38.6152H63.9121V32.7969H64.7119V30.7227ZM71.2598 26.9521C70.7324 26.9609 70.2227 27.0312 69.7393 27.1631C69.2471 27.2949 68.7812 27.4883 68.3506 27.7256C67.9199 27.9629 67.5244 28.2529 67.1641 28.5869C66.8037 28.9297 66.4961 29.2988 66.2412 29.7119C65.9863 30.125 65.7842 30.5732 65.6436 31.0479C65.4941 31.5312 65.4238 32.0322 65.4238 32.5508V38.6152H67.542V32.9111C67.665 32.876 67.8057 32.8496 67.9639 32.8232C68.1133 32.8057 68.2715 32.7969 68.4209 32.7969C68.9219 32.7969 69.4053 32.8936 69.8623 33.0869C70.3105 33.2891 70.7148 33.5527 71.0576 33.8955C71.4004 34.2383 71.6729 34.6338 71.875 35.0908C72.0771 35.5479 72.1738 36.0312 72.1738 36.5498V38.6152H74.3271V29.0439H75.6279V26.9521H71.2598ZM72.1738 32.1025C71.0664 31.1973 69.7393 30.7402 68.2012 30.7402C68.3682 30.4854 68.5615 30.2568 68.7812 30.0459C69.001 29.8438 69.2383 29.6592 69.5107 29.5098C69.7744 29.3604 70.0645 29.2461 70.3721 29.167C70.6797 29.0879 70.9961 29.0439 71.3301 29.0439H72.1738V32.1025Z" fill="white"/>
<path d="M36.126 47.917H26.0273V59.6152H28.1367V50H32.7246V59.6152H34.8252V50H36.126V47.917ZM36.1348 53.8496C36.1348 54.4297 36.2139 54.9922 36.3633 55.5283C36.5127 56.0645 36.7324 56.5742 37.0049 57.04C37.2773 57.5059 37.6113 57.9365 37.998 58.3232C38.3848 58.71 38.8154 59.0352 39.2812 59.3076C39.7471 59.5801 40.2568 59.7998 40.793 59.9492C41.3291 60.0986 41.8916 60.1777 42.4717 60.1777C43.0518 60.1777 43.6143 60.0986 44.1504 59.9492C44.6865 59.7998 45.1963 59.5801 45.6621 59.3076C46.1279 59.0352 46.5586 58.71 46.9453 58.3232C47.332 57.9365 47.666 57.5059 47.9385 57.04C48.2109 56.5742 48.4307 56.0645 48.5801 55.5283C48.7295 54.9922 48.8086 54.4297 48.8086 53.8496C48.8086 53.2695 48.7295 52.707 48.5801 52.1709C48.4307 51.6348 48.2109 51.125 47.9385 50.6592C47.666 50.1934 47.332 49.7627 46.9453 49.376C46.5586 48.9893 46.1279 48.6553 45.6621 48.3828C45.1963 48.1104 44.6865 47.8994 44.1504 47.75C43.6143 47.6006 43.0518 47.5215 42.4717 47.5215C41.8916 47.5215 41.3291 47.6006 40.793 47.75C40.2568 47.8994 39.7471 48.1104 39.2812 48.3828C38.8154 48.6553 38.3848 48.9893 37.998 49.376C37.6113 49.7627 37.2773 50.1934 37.0049 50.6592C36.7324 51.125 36.5127 51.6348 36.3633 52.1709C36.2139 52.707 36.1348 53.2695 36.1348 53.8496ZM42.4717 58.0771C41.8916 58.0771 41.3467 57.9629 40.8369 57.7344C40.3184 57.5146 39.8701 57.207 39.4922 56.8203C39.1143 56.4424 38.8066 55.9941 38.5869 55.4756C38.3672 54.9658 38.2529 54.4209 38.2529 53.8496C38.2529 53.2783 38.3672 52.7422 38.5869 52.2236C38.8066 51.7139 39.1143 51.2656 39.501 50.8789C39.8789 50.501 40.3271 50.1934 40.8457 49.9648C41.3555 49.7451 41.9004 49.6309 42.4717 49.6309C43.043 49.6309 43.5879 49.7451 44.0977 49.9648C44.6074 50.1934 45.0557 50.501 45.4424 50.8789C45.8203 51.2656 46.1279 51.7139 46.3564 52.2236C46.5762 52.7334 46.6904 53.2783 46.6904 53.8496C46.6904 54.4121 46.585 54.9482 46.374 55.458C46.1631 55.9766 45.8555 56.4336 45.46 56.8467C45.0469 57.2422 44.5898 57.5498 44.0889 57.7607C43.5791 57.9717 43.043 58.0771 42.4717 58.0771ZM43.8164 54.8164H41.7158V52.7158H43.8164V54.8164ZM55.4619 47.9609C54.9258 47.9697 54.416 48.04 53.9326 48.1807C53.4404 48.3301 52.9834 48.5234 52.5527 48.7783C52.1221 49.0332 51.7354 49.3408 51.3838 49.6924C51.0322 50.0527 50.7334 50.4395 50.4785 50.8701C50.2236 51.3008 50.0303 51.7666 49.8984 52.2588C49.7578 52.7598 49.6875 53.2695 49.6875 53.8057V59.6152H51.7969V53.6123C51.7969 53.1201 51.9023 52.6543 52.1045 52.2236C52.3066 51.793 52.5791 51.4238 52.9219 51.0986C53.2646 50.7822 53.6602 50.5273 54.1084 50.3428C54.5566 50.1582 55.04 50.0615 55.541 50.0615H56.3848V59.6152H58.4678V50.0615H59.7686V47.9609H55.4619ZM69.9199 57.541C69.9199 57.0049 69.8496 56.4951 69.709 55.9941C69.5771 55.502 69.3838 55.0361 69.1289 54.6055C68.874 54.1748 68.5752 53.7881 68.2236 53.4277C67.8721 53.0762 67.4854 52.7686 67.0547 52.5137C66.624 52.2588 66.167 52.0654 65.6748 51.916C65.1914 51.7754 64.6816 51.7051 64.1455 51.6963H63.2402V47.9609H61.1309V51.6963H60.4805V53.7969H61.1309V59.6152H69.9287V57.541H69.9199ZM63.2402 57.5059V53.7969H64.0664C64.5674 53.7969 65.0508 53.8936 65.499 54.0781C65.9473 54.2627 66.3428 54.5176 66.6855 54.834C67.0283 55.1592 67.3008 55.5283 67.5029 55.959C67.7051 56.3896 67.8105 56.8555 67.8105 57.3477V57.5059H63.2402ZM82.3389 57.5059V47.9609H80.2383V57.5059H77.4961V47.9609H75.4131V57.3652C75.0352 57.2686 74.6924 57.1016 74.3672 56.8818C74.042 56.6621 73.7607 56.3984 73.5234 56.0908C73.2861 55.792 73.0928 55.458 72.9609 55.0889C72.8203 54.7285 72.75 54.3506 72.75 53.9639V47.9609H70.6406V54.1045C70.6406 54.6143 70.7109 55.1064 70.8604 55.5723C71.001 56.0381 71.2031 56.4775 71.458 56.8818C71.7129 57.2949 72.0117 57.6641 72.3721 57.998C72.7324 58.3408 73.1191 58.6221 73.5498 58.8594C73.9805 59.0967 74.4375 59.2812 74.9209 59.4131C75.4043 59.5449 75.9053 59.6152 76.415 59.6152H83.6396V57.5059H82.3389ZM91.0488 47.917V49.6396C90.5303 49.8594 90.0469 50.123 89.5898 50.4219C89.1328 50.7295 88.7109 51.0459 88.3242 51.3887C87.9287 51.7314 87.5771 52.083 87.2695 52.4434C86.9531 52.8037 86.6807 53.1553 86.4609 53.4893V47.917H84.3516V59.6152H86.4609C86.4609 59.6152 86.5049 59.1143 86.6016 58.5781C86.6895 58.042 86.8213 57.5146 86.9971 56.9961C87.1729 56.4775 87.3926 55.9766 87.6475 55.4844C87.9023 54.9922 88.2012 54.5352 88.5439 54.1045C88.8867 53.6738 89.2646 53.2871 89.6865 52.9268C90.0996 52.5752 90.5566 52.2764 91.0488 52.0303V59.6152H93.1494V47.917H91.0488ZM103.942 57.541C103.942 57.0049 103.872 56.4951 103.731 55.9941C103.6 55.502 103.406 55.0361 103.151 54.6055C102.896 54.1748 102.598 53.7881 102.246 53.4277C101.895 53.0762 101.508 52.7686 101.077 52.5137L100.98 52.4609C101.121 52.3379 101.271 52.2061 101.402 52.0742C101.754 51.7139 102.053 51.3271 102.308 50.8965C102.562 50.4658 102.756 50 102.888 49.5078C103.028 49.0068 103.099 48.4971 103.099 47.9609H100.989V48.1543C100.989 48.6465 100.884 49.1123 100.682 49.543C100.479 49.9736 100.207 50.3428 99.8643 50.668C99.5215 50.9844 99.126 51.2393 98.6777 51.4238C98.2822 51.582 97.8516 51.6787 97.4121 51.6963H97.2627V47.9609H93.8613V50.0615H95.1533V51.7051H94.5117V53.8057H95.1533V59.6152H97.2627V53.7969H98.0889C98.5898 53.7969 99.0732 53.8936 99.5215 54.0781C99.9697 54.2627 100.365 54.5176 100.708 54.834C101.051 55.1592 101.323 55.5283 101.525 55.959C101.728 56.3896 101.833 56.8555 101.833 57.3477V59.6152H103.951V57.541H103.942ZM104.303 53.8496C104.303 54.4297 104.382 54.9922 104.531 55.5283C104.681 56.0645 104.9 56.5742 105.173 57.04C105.445 57.5059 105.779 57.9365 106.166 58.3232C106.553 58.71 106.983 59.0352 107.449 59.3076C107.915 59.5801 108.425 59.7998 108.961 59.9492C109.497 60.0986 110.06 60.1777 110.64 60.1777C111.22 60.1777 111.782 60.0986 112.318 59.9492C112.854 59.7998 113.364 59.5801 113.83 59.3076C114.296 59.0352 114.727 58.71 115.113 58.3232C115.5 57.9365 115.834 57.5059 116.106 57.04C116.379 56.5742 116.599 56.0645 116.748 55.5283C116.897 54.9922 116.977 54.4297 116.977 53.8496C116.977 53.2695 116.897 52.707 116.748 52.1709C116.599 51.6348 116.379 51.125 116.106 50.6592C115.834 50.1934 115.5 49.7627 115.113 49.376C114.727 48.9893 114.296 48.6553 113.83 48.3828C113.364 48.1104 112.854 47.8994 112.318 47.75C111.782 47.6006 111.22 47.5215 110.64 47.5215C110.06 47.5215 109.497 47.6006 108.961 47.75C108.425 47.8994 107.915 48.1104 107.449 48.3828C106.983 48.6553 106.553 48.9893 106.166 49.376C105.779 49.7627 105.445 50.1934 105.173 50.6592C104.9 51.125 104.681 51.6348 104.531 52.1709C104.382 52.707 104.303 53.2695 104.303 53.8496ZM110.64 58.0771C110.06 58.0771 109.515 57.9629 109.005 57.7344C108.486 57.5146 108.038 57.207 107.66 56.8203C107.282 56.4424 106.975 55.9941 106.755 55.4756C106.535 54.9658 106.421 54.4209 106.421 53.8496C106.421 53.2783 106.535 52.7422 106.755 52.2236C106.975 51.7139 107.282 51.2656 107.669 50.8789C108.047 50.501 108.495 50.1934 109.014 49.9648C109.523 49.7451 110.068 49.6309 110.64 49.6309C111.211 49.6309 111.756 49.7451 112.266 49.9648C112.775 50.1934 113.224 50.501 113.61 50.8789C113.988 51.2656 114.296 51.7139 114.524 52.2236C114.744 52.7334 114.858 53.2783 114.858 53.8496C114.858 54.4121 114.753 54.9482 114.542 55.458C114.331 55.9766 114.023 56.4336 113.628 56.8467C113.215 57.2422 112.758 57.5498 112.257 57.7607C111.747 57.9717 111.211 58.0771 110.64 58.0771ZM111.984 54.8164H109.884V52.7158H111.984V54.8164ZM126.671 55.9941C126.539 55.502 126.346 55.0361 126.091 54.6055C125.836 54.1748 125.537 53.7881 125.186 53.4277C124.834 53.0762 124.447 52.7686 124.017 52.5137L123.92 52.4609C124.061 52.3379 124.201 52.2061 124.342 52.0742C124.693 51.7139 124.992 51.3271 125.247 50.8965C125.502 50.4658 125.695 50 125.827 49.5078C125.968 49.0068 126.038 48.4971 126.038 47.9609H116.801V50.0615H118.093V51.7051H117.451V53.8057H118.093V59.6152H126.891V57.541C126.891 57.0049 126.812 56.4951 126.671 55.9941ZM120.202 50.0615H123.322C123.173 50.2812 122.997 50.4834 122.804 50.668C122.461 50.9844 122.065 51.2393 121.617 51.4238C121.222 51.582 120.791 51.6787 120.352 51.6963H120.202V50.0615ZM124.772 57.5146H120.202V53.7969H121.028C121.529 53.7969 122.013 53.8936 122.461 54.0781C122.909 54.2627 123.305 54.5176 123.647 54.834C123.99 55.1592 124.263 55.5283 124.465 55.959C124.667 56.3896 124.772 56.8555 124.772 57.3477V57.5146ZM133.43 47.9521C132.902 47.9609 132.393 48.0312 131.909 48.1631C131.417 48.2949 130.951 48.4883 130.521 48.7256C130.09 48.9629 129.694 49.2529 129.334 49.5869C128.974 49.9297 128.666 50.2988 128.411 50.7119C128.156 51.125 127.954 51.5732 127.813 52.0479C127.664 52.5312 127.594 53.0322 127.594 53.5508V59.6152H129.712V53.9111C129.835 53.876 129.976 53.8496 130.134 53.8232C130.283 53.8057 130.441 53.7969 130.591 53.7969C131.092 53.7969 131.575 53.8936 132.032 54.0869C132.48 54.2891 132.885 54.5527 133.228 54.8955C133.57 55.2383 133.843 55.6338 134.045 56.0908C134.247 56.5479 134.344 57.0312 134.344 57.5498V59.6152H136.497V50.0439H137.798V47.9521H133.43ZM134.344 53.1025C133.236 52.1973 131.909 51.7402 130.371 51.7402C130.538 51.4854 130.731 51.2568 130.951 51.0459C131.171 50.8438 131.408 50.6592 131.681 50.5098C131.944 50.3604 132.234 50.2461 132.542 50.167C132.85 50.0879 133.166 50.0439 133.5 50.0439H134.344V53.1025Z" fill="white"/>
<defs>
<radialGradient id="paint0_radial" cx="0" cy="0" r="1" gradientUnits="userSpaceOnUse" gradientTransform="translate(-5.64844 38.6152) rotate(0.633077) scale(90.5055 120.499)">
<stop stop-color="#FF8AB4"/>
<stop offset="1" stop-color="#FF8AB4" stop-opacity="0"/>
</radialGradient>
</defs>
</svg>
