<svg width="30" height="30" viewBox="0 0 30 30" fill="none" xmlns="http://www.w3.org/2000/svg">
<path d="M20.128 21.8371L22.462 10.4647C22.5572 9.98333 22.5016 9.63871 22.2952 9.43085C22.0888 9.22298 21.8163 9.18469 21.4776 9.31598L7.75961 14.7806C7.45265 14.901 7.2436 15.0377 7.13246 15.1909C7.02132 15.3441 7.00809 15.489 7.09277 15.6258C7.17745 15.7625 7.3468 15.8692 7.60084 15.9458L11.1097 17.0781L19.2547 11.7775C19.477 11.6244 19.6464 11.5916 19.7628 11.6791C19.8369 11.7338 19.8157 11.8158 19.6993 11.9252L13.1102 18.0791L12.8562 21.8207C13.0997 21.8207 13.3378 21.7004 13.5707 21.4597L15.2854 19.753L18.8419 22.4607C19.5194 22.8546 19.9481 22.6467 20.128 21.8371Z" fill="white"/>
<path d="M28.7274 15.434C28.7274 22.8607 22.7105 28.8802 15.2895 28.8802C7.86847 28.8802 1.85156 22.8607 1.85156 15.434C1.85156 8.00732 7.86847 1.98779 15.2895 1.98779C22.7105 1.98779 28.7274 8.00732 28.7274 15.434Z" stroke="white" stroke-width="2"/>
</svg>
