<svg width="29" height="30" viewBox="0 0 29 30" fill="none" xmlns="http://www.w3.org/2000/svg">
<path d="M14.8516 3.33414C8.49031 3.33414 3.31906 8.50835 3.31031 14.8732C3.31031 17.0532 3.92281 19.1807 5.07781 21.0105L5.34906 21.4483L4.18531 25.7032L8.55156 24.5563L8.97156 24.8102C10.7391 25.8608 12.7691 26.4211 14.8428 26.4211H14.8516C21.2041 26.4211 26.5153 21.2469 26.5153 14.882C26.5153 11.8002 25.1853 8.90233 23.0066 6.72233C20.8191 4.53357 17.9316 3.33414 14.8516 3.33414ZM21.6328 19.8286C21.3441 20.6428 19.9616 21.3782 19.2966 21.4745C18.1941 21.6409 17.3366 21.5533 15.1403 20.6078C11.6666 19.1019 9.39156 15.5999 9.21656 15.3723C9.04156 15.1447 7.79906 13.49 7.79906 11.7827C7.79906 10.0755 8.69156 9.23502 9.01531 8.88482C9.33031 8.53462 9.70656 8.44707 9.94281 8.44707C10.1703 8.44707 10.4066 8.44707 10.6078 8.45582C10.8178 8.46458 11.1066 8.37703 11.3866 9.05116C11.6753 9.74281 12.3666 11.45 12.4541 11.6251C12.5416 11.8002 12.6028 12.0016 12.4803 12.2292C11.8153 13.56 11.1066 13.5075 11.4653 14.1203C12.8041 16.4229 14.1428 17.2196 16.1816 18.2439C16.5316 18.419 16.7328 18.3928 16.9341 18.1564C17.1353 17.9288 17.8003 17.1408 18.0278 16.7994C18.2553 16.4492 18.4916 16.5104 18.8066 16.6243C19.1216 16.7381 20.8278 17.5785 21.1778 17.7536C21.5278 17.9287 21.7553 18.0163 21.8428 18.1564C21.9216 18.3227 21.9216 19.0231 21.6328 19.8286ZM14.8428 28.7587C12.5153 28.7587 10.2316 28.1721 8.21031 27.069L0.851562 29.0038L2.82031 21.8072C1.60406 19.706 0.965313 17.3159 0.965313 14.8645C0.974063 7.21261 7.19531 0.987793 14.8428 0.987793C18.5528 0.987793 22.0353 2.43237 24.6603 5.05888C27.2766 7.68538 28.8516 11.1699 28.8516 14.882C28.8516 22.5339 22.4903 28.7587 14.8428 28.7587Z" fill="white"/>
</svg>
