<svg width="73" height="110" viewBox="0 0 73 110" fill="none" xmlns="http://www.w3.org/2000/svg">
<path d="M69.2984 50.2592C69.3255 39.5767 57.974 39.1955 55.9527 49.5417C53.7773 44.5508 48.4527 35.7584 44.5577 40.5162C40.6626 45.274 48.5427 62.6277 52.9696 70.7099C54.0258 71.0499 56.3366 68.5955 58.0816 67.0361C64.1038 59.7786 69.287 54.7707 69.2984 50.2592Z" fill="#EC80BE"/>
<path d="M3.82984 81.6428C-0.342338 70.3214 16.3952 69.5243 18.5561 80.8903C20.9712 75.4249 26.8636 65.8049 31.1119 71.0481C35.3603 76.2913 26.6158 95.293 21.7125 104.138C20.5515 104.506 18.0291 101.799 16.1227 100.078C9.55366 92.0798 5.54647 86.3009 3.82984 81.6428Z" fill="#EC80BE"/>
<path d="M14.6263 9.03855C13.0006 0.124585 25.6453 1.10385 26.0471 10.094C28.5132 6.15454 34.1175 -0.597423 36.8061 3.91078C39.4947 8.41898 30.6531 22.077 25.8963 28.3425C24.9617 28.4964 23.3202 26.1328 22.0435 24.5961C17.8742 17.7091 15.3173 12.8274 14.6263 9.03855Z" fill="#BA548F"/>
</svg>
